<svg width="45" height="45" viewBox="0 0 45 45" fill="none" xmlns="http://www.w3.org/2000/svg">
<path d="M22.5 0C18.0499 0 13.6998 1.3196 9.99968 3.79193C6.29957 6.26426 3.41569 9.77828 1.71272 13.8896C0.00974789 18.001 -0.435826 22.525 0.432342 26.8895C1.30051 31.2541 3.44343 35.2632 6.59011 38.4099C9.73679 41.5566 13.7459 43.6995 18.1105 44.5677C22.475 45.4358 26.999 44.9903 31.1104 43.2873C35.2217 41.5843 38.7357 38.7004 41.2081 35.0003C43.6804 31.3002 45 26.9501 45 22.5C44.9932 16.5347 42.6205 10.8157 38.4024 6.59756C34.1843 2.37946 28.4653 0.00675808 22.5 0V0ZM22.5 42C18.6433 42 14.8731 40.8564 11.6664 38.7137C8.4596 36.571 5.96022 33.5255 4.4843 29.9624C3.00839 26.3992 2.62222 22.4784 3.37462 18.6958C4.12703 14.9131 5.98422 11.4385 8.71135 8.71142C11.4385 5.98429 14.913 4.12709 18.6957 3.37467C22.4783 2.62225 26.3991 3.00842 29.9623 4.48432C33.5254 5.96023 36.5709 8.4596 38.7136 11.6664C40.8563 14.8731 42 18.6433 42 22.5C41.9942 27.6699 39.9378 32.6265 36.2821 36.2822C32.6265 39.9379 27.6699 41.9942 22.5 42Z" fill="#24228D"/>
<path d="M22.5 0C18.0499 0 13.6998 1.3196 9.99968 3.79193C6.29957 6.26426 3.41569 9.77828 1.71272 13.8896C0.00974789 18.001 -0.435826 22.525 0.432342 26.8895C1.30051 31.2541 3.44343 35.2632 6.59011 38.4099C9.73679 41.5566 13.7459 43.6995 18.1105 44.5677C22.475 45.4358 26.999 44.9903 31.1104 43.2873C35.2217 41.5843 38.7357 38.7004 41.2081 35.0003C43.6804 31.3002 45 26.9501 45 22.5C44.9932 16.5347 42.6205 10.8157 38.4024 6.59756C34.1843 2.37946 28.4653 0.00675808 22.5 0V0ZM22.5 42C18.6433 42 14.8731 40.8564 11.6664 38.7137C8.4596 36.571 5.96022 33.5255 4.4843 29.9624C3.00839 26.3992 2.62222 22.4784 3.37462 18.6958C4.12703 14.9131 5.98422 11.4385 8.71135 8.71142C11.4385 5.98429 14.913 4.12709 18.6957 3.37467C22.4783 2.62225 26.3991 3.00842 29.9623 4.48432C33.5254 5.96023 36.5709 8.4596 38.7136 11.6664C40.8563 14.8731 42 18.6433 42 22.5C41.9942 27.6699 39.9378 32.6265 36.2821 36.2822C32.6265 39.9379 27.6699 41.9942 22.5 42Z" fill="#24228D"/>
<g clip-path="url(#clip0_164_19180)">
<path d="M32 18.28V16C32 14.9 31.1 14 30 14H16C14.89 14 14 14.9 14 16V30C14 31.1 14.89 32 16 32H30C31.1 32 32 31.1 32 30V27.72C32.59 27.37 33 26.74 33 26V20C33 19.26 32.59 18.63 32 18.28ZM31 20V26H24V20H31ZM16 30V16H30V18H24C22.9 18 22 18.9 22 20V26C22 27.1 22.9 28 24 28H30V30H16Z" fill="#24228D"/>
<path d="M27 24.5C27.8284 24.5 28.5 23.8284 28.5 23C28.5 22.1716 27.8284 21.5 27 21.5C26.1716 21.5 25.5 22.1716 25.5 23C25.5 23.8284 26.1716 24.5 27 24.5Z" fill="#24228D"/>
</g>
<defs>
<clipPath id="clip0_164_19180">
<rect width="24" height="24" fill="white" transform="translate(11 11)"/>
</clipPath>
</defs>
</svg>
