<svg width="123" height="89" viewBox="0 0 123 89" fill="none" xmlns="http://www.w3.org/2000/svg">
<path d="M71.9658 28.4177C71.9386 28.4631 71.9114 28.5101 71.8808 28.5555C71.8672 28.579 71.8502 28.6025 71.8383 28.6244C71.8298 28.6448 71.8213 28.6683 71.8145 28.6902C71.7838 28.7826 71.7566 28.8828 71.7311 28.9799L71.5747 29.5703C71.5254 29.7676 71.4778 29.9649 71.4335 30.1623C71.4063 30.2938 71.3791 30.4238 71.3621 30.5616L76.6201 25.851C76.1499 24.9223 75.8406 23.9315 75.7035 22.9147C74.8873 23.2717 73.8432 23.7149 72.4334 24.2536C70.0918 25.1478 69.4626 29.777 69.4626 29.777C69.4626 29.777 70.5425 29.9963 71.1513 29.8334C71.1612 29.7197 71.1788 29.6068 71.204 29.4951C71.2501 29.2827 71.3219 29.0757 71.4182 28.8781C71.467 28.7769 71.5256 28.6799 71.5934 28.5884C71.6104 28.5649 71.6308 28.5414 71.6529 28.5164L71.6988 28.4522C71.7311 28.4099 71.76 28.366 71.789 28.3222C72.027 27.9698 72.2532 27.6049 72.476 27.2416L73.1477 26.147C72.964 26.5306 72.7752 26.9122 72.5814 27.2917C72.3841 27.6691 72.1869 28.0466 71.9658 28.4177ZM69.801 29.7332C69.735 29.731 69.6724 29.7053 69.6265 29.6615C69.5806 29.6177 69.5549 29.5592 69.5549 29.4983C69.5549 29.4374 69.5806 29.3789 69.6265 29.335C69.6724 29.2912 69.735 29.2655 69.801 29.2634C69.8671 29.2655 69.9297 29.2912 69.9756 29.335C70.0215 29.3789 70.0472 29.4374 70.0472 29.4983C70.0472 29.5592 70.0215 29.6177 69.9756 29.6615C69.9297 29.7053 69.8671 29.731 69.801 29.7332ZM70.6377 29.7332C70.5716 29.731 70.509 29.7053 70.4631 29.6615C70.4172 29.6177 70.3915 29.5592 70.3915 29.4983C70.3915 29.4374 70.4172 29.3789 70.4631 29.335C70.509 29.2912 70.5716 29.2655 70.6377 29.2634C70.7038 29.2655 70.7664 29.2912 70.8123 29.335C70.8582 29.3789 70.8839 29.4374 70.8839 29.4983C70.8839 29.5592 70.8582 29.6177 70.8123 29.6615C70.7664 29.7053 70.7038 29.731 70.6377 29.7332Z" fill="#24228D"/>
<path d="M71.3479 30.7758C71.6311 30.8896 71.9319 30.9621 72.2394 30.9907C72.3868 31.0023 72.5352 30.9972 72.6812 30.9754C72.8325 30.9585 72.9798 30.9151 73.1469 30.8809C73.0363 31.0017 72.8946 31.0949 72.7346 31.152C72.5719 31.214 72.3953 31.2389 72.2198 31.2248C72.0456 31.2126 71.8762 31.1659 71.7234 31.0878C71.572 31.0142 71.4429 30.907 71.3479 30.7758Z" fill="#24228D"/>
<path d="M56.3165 38.2633C56.289 38.0487 56.2752 37.8327 56.2751 37.6166L56.3165 38.2633Z" fill="#24228D"/>
<path d="M56.3278 38.4544L56.3159 38.2634C56.3588 38.6916 56.4978 39.1071 56.724 39.4833C56.2938 38.9023 56.3278 38.4544 56.3278 38.4544Z" fill="#24228D"/>
<path d="M56.7395 39.5052C56.7939 39.5788 56.8568 39.654 56.9265 39.7308C56.8562 39.6615 56.7936 39.5859 56.7395 39.5052Z" fill="#24228D"/>
<path d="M92.5999 42.3726L29.6809 41.9795V41.0321C34.9168 41.1088 40.1527 41.1668 45.3885 41.2059C50.6244 41.2592 55.8603 41.2764 61.0962 41.3046C66.3321 41.339 71.5697 41.3406 76.8055 41.35L84.6602 41.3578L92.4537 41.3422L92.5999 42.3726Z" fill="#24228D"/>
<path d="M102.623 35.6668V36.6393L92.5999 42.3725L92.5813 41.3219L95.0879 39.9186L97.6011 38.5045L102.623 35.6668Z" fill="#24228D"/>
<path d="M69.0259 38.2925L69.366 38.2991" stroke="#24228D" stroke-width="1.93554" stroke-miterlimit="10"/>
<path d="M70.0654 38.3098L78.1105 38.4434" stroke="#24228D" stroke-width="1.93554" stroke-miterlimit="10" stroke-dasharray="3.98 3.98"/>
<path d="M78.4604 38.4492L78.8005 38.4557" stroke="#24228D" stroke-width="1.93554" stroke-miterlimit="10"/>
<path d="M69.3979 37.7322L69.738 37.7387" stroke="#24228D" stroke-width="1.93554" stroke-miterlimit="10"/>
<path d="M70.4375 37.7495L78.4826 37.883" stroke="#24228D" stroke-width="1.93554" stroke-miterlimit="10" stroke-dasharray="3.98 3.98"/>
<path d="M78.8325 37.8888L79.1726 37.8953" stroke="#24228D" stroke-width="1.93554" stroke-miterlimit="10"/>
<path d="M69.8469 37.1788L70.187 37.1853" stroke="#24228D" stroke-width="1.93554" stroke-miterlimit="10"/>
<path d="M70.8865 37.196L78.9316 37.3296" stroke="#24228D" stroke-width="1.93554" stroke-miterlimit="10" stroke-dasharray="3.98 3.98"/>
<path d="M79.2815 37.3354L79.6215 37.342" stroke="#24228D" stroke-width="1.93554" stroke-miterlimit="10"/>
<path d="M40.8773 36.5665C40.9648 38.8381 41.0226 41.1097 41.0963 43.3813L41.2606 50.1962C41.2906 51.332 41.3252 52.4678 41.3645 53.6036C41.3994 54.7394 41.4013 55.8752 41.37 57.011L41.3057 58.7147C41.2732 59.2826 41.2515 59.8505 41.2077 60.4184C41.1315 61.5542 41.0342 62.69 40.8773 63.8258C40.8756 63.8381 40.8692 63.8493 40.8591 63.8575C40.849 63.8657 40.836 63.8702 40.8226 63.8702C40.8092 63.8702 40.7962 63.8657 40.7861 63.8575C40.7761 63.8493 40.7696 63.8381 40.7679 63.8258C40.611 62.69 40.5137 61.5542 40.4376 60.4184C40.3937 59.8505 40.372 59.2826 40.3395 58.7147L40.2752 57.011C40.2435 55.8752 40.2453 54.7394 40.2807 53.6036C40.3212 52.4678 40.3559 51.332 40.3846 50.1962L40.5489 43.3813C40.6226 41.1097 40.6804 38.8381 40.7679 36.5665C40.7684 36.5535 40.7744 36.5411 40.7846 36.5321C40.7948 36.523 40.8084 36.5179 40.8226 36.5179C40.8368 36.5179 40.8504 36.523 40.8606 36.5321C40.8708 36.5411 40.8768 36.5535 40.8773 36.5665H40.8773Z" fill="black" fill-opacity="0.5"/>
<path d="M31.0824 42.3551C31.1699 44.6267 31.2277 46.8983 31.3014 49.1699L31.4656 55.9848C31.4957 57.1206 31.5303 58.2564 31.5696 59.3922C31.6046 60.528 31.6064 61.6638 31.5751 62.7996L31.5108 64.5033C31.4783 65.0712 31.4565 65.6391 31.4127 66.207C31.3366 67.3428 31.2393 68.4786 31.0824 69.6144C31.0807 69.6267 31.0742 69.6379 31.0642 69.6461C31.0541 69.6543 31.0411 69.6588 31.0277 69.6588C31.0142 69.6588 31.0013 69.6543 30.9912 69.6461C30.9811 69.6379 30.9746 69.6267 30.9729 69.6144C30.8161 68.4786 30.7188 67.3428 30.6427 66.207C30.5988 65.6391 30.5771 65.0712 30.5446 64.5033L30.4802 62.7996C30.4485 61.6638 30.4504 60.528 30.4857 59.3922C30.5263 58.2564 30.561 57.1206 30.5897 55.9848L30.754 49.1699C30.8277 46.8983 30.8855 44.6267 30.9729 42.3551C30.9734 42.3421 30.9794 42.3297 30.9896 42.3206C30.9998 42.3115 31.0135 42.3065 31.0277 42.3065C31.0419 42.3065 31.0555 42.3115 31.0657 42.3206C31.0759 42.3297 31.0819 42.3421 31.0824 42.3551H31.0824Z" fill="black" fill-opacity="0.5"/>
<path d="M101.348 36.5665C101.435 38.8381 101.493 41.1097 101.567 43.3813L101.731 50.1962C101.761 51.332 101.795 52.4678 101.835 53.6036C101.87 54.7394 101.871 55.8752 101.84 57.011L101.776 58.7147C101.743 59.2826 101.722 59.8505 101.678 60.4184C101.602 61.5542 101.504 62.69 101.348 63.8258C101.346 63.8381 101.339 63.8493 101.329 63.8575C101.319 63.8657 101.306 63.8702 101.293 63.8702C101.279 63.8702 101.266 63.8657 101.256 63.8575C101.246 63.8493 101.24 63.8381 101.238 63.8258C101.081 62.69 100.984 61.5542 100.908 60.4184C100.864 59.8505 100.842 59.2826 100.81 58.7147L100.745 57.011C100.714 55.8752 100.716 54.7394 100.751 53.6036C100.791 52.4678 100.826 51.332 100.855 50.1962L101.019 43.3813C101.093 41.1097 101.151 38.8381 101.238 36.5665C101.239 36.5535 101.245 36.5411 101.255 36.5321C101.265 36.523 101.279 36.5179 101.293 36.5179C101.307 36.5179 101.321 36.523 101.331 36.5321C101.341 36.5411 101.347 36.5535 101.348 36.5665H101.348Z" fill="black" fill-opacity="0.5"/>
<path d="M91.5526 42.3551C91.6401 44.6267 91.6979 46.8983 91.7716 49.1699L91.9358 55.9848C91.9659 57.1206 92.0006 58.2564 92.0399 59.3922C92.0747 60.528 92.0766 61.6638 92.0453 62.7996L91.981 64.5033C91.9485 65.0712 91.9268 65.6391 91.8829 66.207C91.8068 67.3428 91.7095 68.4786 91.5526 69.6144C91.5509 69.6267 91.5444 69.6379 91.5344 69.6461C91.5243 69.6543 91.5113 69.6588 91.4979 69.6588C91.4845 69.6588 91.4715 69.6543 91.4614 69.6461C91.4513 69.6379 91.4449 69.6267 91.4432 69.6144C91.2862 68.4786 91.189 67.3428 91.1128 66.207C91.069 65.6391 91.0473 65.0712 91.0148 64.5033L90.9505 62.7996C90.9188 61.6638 90.9206 60.528 90.9559 59.3922C90.9965 58.2564 91.0312 57.1206 91.0599 55.9848L91.2242 49.1699C91.2979 46.8983 91.3557 44.6267 91.4432 42.3551C91.4437 42.3421 91.4497 42.3297 91.4599 42.3207C91.4701 42.3116 91.4837 42.3066 91.4979 42.3066C91.5121 42.3066 91.5257 42.3116 91.5359 42.3207C91.5461 42.3297 91.5521 42.3421 91.5526 42.3551H91.5526Z" fill="black" fill-opacity="0.5"/>
<path d="M77.8007 21.6943C77.5139 21.6858 77.2402 21.5816 77.0306 21.4011C76.8174 21.2323 76.6292 21.0385 76.4708 20.8247C76.311 20.6153 76.1675 20.3958 76.0412 20.1678C75.9127 19.9407 75.7985 19.707 75.6994 19.4678L75.9708 19.5342C75.9242 19.5708 75.8699 19.5981 75.8113 19.6143C75.7527 19.6305 75.691 19.6353 75.6303 19.6284C75.5285 19.614 75.4323 19.5765 75.3502 19.5193C75.2074 19.4219 75.0946 19.2919 75.0231 19.1421C74.9483 18.997 74.9141 18.837 74.9237 18.6767C74.9337 18.5148 74.9945 18.359 75.0989 18.2284C75.2 18.1059 75.3296 18.0059 75.4781 17.9355C75.5552 17.8974 75.6394 17.873 75.7263 17.8636C75.8212 17.8536 75.9168 17.8749 75.9962 17.9236C76.1238 18.0236 76.2119 18.1596 76.2468 18.3104C76.2865 18.4472 76.3108 18.5874 76.3192 18.7288L76.2726 18.6776C76.4662 18.7145 76.6676 18.6888 76.843 18.6049C77.0221 18.5197 77.1837 18.4063 77.3204 18.2698C77.5942 17.9892 77.8273 17.677 78.0141 17.3412C78.2076 17.0074 78.3827 16.6638 78.5453 16.315C78.708 15.9675 78.8582 15.6093 78.9853 15.2542C78.9982 15.2181 79.0232 15.1866 79.0567 15.1642C79.0901 15.1419 79.1304 15.1298 79.1717 15.1296C79.213 15.1295 79.2534 15.1414 79.287 15.1635C79.3206 15.1857 79.3458 15.217 79.359 15.2531L79.3617 15.2606C79.5403 15.7577 79.7374 16.2569 79.9537 16.741C80.0666 16.9811 80.1847 17.2182 80.3173 17.4445C80.4344 17.6617 80.5978 17.8549 80.7978 18.0126L80.8161 18.0248C80.8317 18.0352 80.8447 18.0486 80.8543 18.0641C80.8639 18.0795 80.8697 18.0967 80.8715 18.1144C80.9045 18.4526 80.9133 18.7879 80.9106 19.1255C80.9087 19.2947 80.8968 19.4637 80.8748 19.6317C80.8597 19.8023 80.8139 19.9695 80.7393 20.1263C80.7372 20.1303 80.7336 20.1334 80.7291 20.135C80.7247 20.1366 80.7197 20.1367 80.7153 20.1351C80.7108 20.1336 80.7071 20.1305 80.7049 20.1266C80.7027 20.1227 80.7022 20.1181 80.7034 20.1139L80.7039 20.1125C80.7442 19.953 80.7601 19.7892 80.7511 19.6257C80.7466 19.4611 80.7312 19.2967 80.7165 19.1323C80.6842 18.804 80.63 18.4745 80.5717 18.1515L80.6454 18.2532C80.382 18.0883 80.1636 17.8695 80.0072 17.614C79.8514 17.3805 79.7119 17.1381 79.5897 16.8882C79.347 16.3947 79.1442 15.8854 78.9831 15.3644L79.3595 15.3707C79.2107 15.7412 79.0455 16.0956 78.8641 16.4483C78.684 16.8015 78.4763 17.1423 78.2427 17.4679C78.0117 17.7984 77.7385 18.1023 77.429 18.3729C77.2703 18.5088 77.0901 18.6216 76.8945 18.7075C76.6932 18.7965 76.4661 18.8236 76.2468 18.7848C76.2344 18.7825 76.2232 18.7765 76.2148 18.7678C76.2064 18.7591 76.2014 18.7481 76.2003 18.7365L76.2001 18.7336C76.1909 18.602 76.1637 18.472 76.119 18.3467C76.0866 18.2292 76.0116 18.1254 75.9065 18.0525C75.716 17.9632 75.4356 18.1757 75.3125 18.36C75.2535 18.4598 75.2235 18.5718 75.2252 18.6853C75.2269 18.7989 75.2603 18.9101 75.3222 19.0083C75.3766 19.1072 75.4545 19.1936 75.5502 19.261C75.5868 19.2867 75.6295 19.3041 75.6747 19.3119C75.6876 19.3142 75.7009 19.314 75.7137 19.3112C75.7265 19.3085 75.7385 19.3032 75.7489 19.2958L75.7639 19.2862C75.8007 19.2625 75.8462 19.2533 75.8904 19.2606C75.9347 19.2678 75.9739 19.291 75.9996 19.3249C76.0083 19.3364 76.0152 19.349 76.0204 19.3622C76.1072 19.5887 76.2147 19.8179 76.3226 20.0416C76.4337 20.2649 76.5543 20.4841 76.6876 20.6954C76.8182 20.9066 76.9725 21.1046 77.148 21.2862C77.3145 21.4746 77.5452 21.6059 77.8027 21.6589C77.8052 21.6593 77.8076 21.6601 77.8098 21.6613C77.812 21.6625 77.8139 21.6641 77.8154 21.666C77.8169 21.6679 77.8179 21.6701 77.8185 21.6723C77.8191 21.6746 77.8192 21.677 77.8188 21.6793C77.8181 21.6833 77.8159 21.687 77.8126 21.6897C77.8093 21.6925 77.8051 21.6941 77.8007 21.6943Z" fill="#24228D"/>
<path d="M76.8502 21.0831C76.8667 21.2079 76.8808 21.3327 76.8933 21.4575C76.9101 21.5872 76.909 21.7184 76.8901 21.848C76.8466 22.1163 76.7219 22.3679 76.5304 22.574C76.4334 22.6782 76.321 22.7694 76.1966 22.8448C76.1351 22.8822 76.0713 22.9163 76.0055 22.9469L75.8232 23.0307C75.5793 23.1405 75.3361 23.2522 75.0877 23.3533C74.5929 23.5596 74.079 23.727 73.5699 23.9018C73.3141 23.9868 73.0603 24.0755 72.8091 24.1699C72.5563 24.2508 72.3146 24.3587 72.0891 24.4914C71.6653 24.786 71.3199 25.1655 71.0791 25.6012C70.8232 26.0299 70.6058 26.4772 70.4294 26.9386C70.0877 27.8722 69.8154 28.8262 69.6145 29.7938L69.4962 29.6395C69.792 29.7096 70.0923 29.7623 70.3953 29.7972C70.5467 29.815 70.6992 29.8239 70.8519 29.8238C71.0042 29.8258 71.1558 29.8045 71.3005 29.7607C71.3028 29.7598 71.3054 29.7594 71.3079 29.7594C71.3105 29.7595 71.313 29.76 71.3153 29.7609C71.3176 29.7618 71.3198 29.7632 71.3215 29.7648C71.3233 29.7665 71.3247 29.7685 71.3256 29.7707C71.3272 29.7745 71.3273 29.7787 71.3259 29.7826C71.3246 29.7866 71.3219 29.7899 71.3182 29.7922C71.1786 29.8677 71.0244 29.9173 70.8642 29.9382C70.7063 29.9646 70.5463 29.9783 70.3858 29.9793C70.2263 29.9823 70.0668 29.9777 69.9078 29.9655C69.7483 29.9537 69.5922 29.939 69.4306 29.9134C69.3948 29.9077 69.3627 29.8899 69.3406 29.8635C69.3185 29.837 69.3079 29.8039 69.3111 29.7707L69.3123 29.759C69.3639 29.2553 69.4529 28.7554 69.5786 28.2628C69.7013 27.7688 69.8663 27.2846 70.0722 26.8146C70.2705 26.3382 70.5265 25.8838 70.8352 25.4601C71.1474 25.0341 71.5497 24.6703 72.018 24.3906C72.2567 24.2655 72.5053 24.1571 72.7616 24.0662C73.01 23.9671 73.254 23.8582 73.4951 23.7439C73.9794 23.5195 74.4545 23.278 74.944 23.0662C75.1878 22.9583 75.4358 22.8589 75.6818 22.7553L75.8667 22.6786C75.9237 22.6563 75.9792 22.6309 76.0329 22.6026C76.1388 22.5461 76.2366 22.4774 76.3237 22.3982C76.5028 22.2356 76.6338 22.0337 76.7044 21.8115C76.7404 21.6961 76.7619 21.5773 76.7686 21.4575C76.7811 21.3327 76.7951 21.2079 76.8116 21.0832C76.8122 21.0788 76.8145 21.0748 76.818 21.0719C76.8216 21.069 76.8262 21.0674 76.8309 21.0674C76.8357 21.0674 76.8402 21.069 76.8438 21.0719C76.8473 21.0748 76.8496 21.0788 76.8502 21.0832L76.8502 21.0831Z" fill="#24228D"/>
<path d="M71.3481 30.7758C71.4567 31.1249 71.5146 31.4858 71.5203 31.8489C71.541 32.211 71.544 32.5735 71.5294 32.9363C71.5176 33.299 71.492 33.6614 71.4461 34.0235C71.4078 34.3916 71.334 34.7558 71.2254 35.1119L71.0553 34.9045L73.4649 34.7808L75.8754 34.6757L78.2863 34.5802C79.0898 34.5449 79.8935 34.5246 80.6966 34.4595C80.3033 34.5418 79.9038 34.6009 79.5045 34.653C79.1052 34.7087 78.7049 34.7537 78.3041 34.7944C77.5025 34.8759 76.6996 34.9412 75.8961 34.9958C75.0929 35.0542 74.2885 35.0927 73.4844 35.1345C72.6797 35.168 71.8755 35.2026 71.0697 35.2202L71.0671 35.2203C71.0445 35.2208 71.0221 35.2172 71.001 35.2097C70.98 35.2022 70.9607 35.1909 70.9444 35.1766C70.928 35.1622 70.9149 35.145 70.9058 35.126C70.8967 35.107 70.8917 35.0865 70.8912 35.0657C70.8907 35.0478 70.8936 35.0299 70.8996 35.0128C71.0105 34.6766 71.095 34.3335 71.1526 33.9862C71.2153 33.6344 71.261 33.2786 71.3023 32.9224C71.3395 32.5658 71.3737 32.2081 71.3921 31.8494C71.4197 31.4911 71.4049 31.1311 71.3481 30.7758Z" fill="#24228D"/>
<path d="M81.1115 35.1349C80.4245 35.2422 77.3772 35.1845 75.8008 35.1466C75.8008 35.1466 79.1725 32.5468 79.1831 31.5715C79.1831 31.5715 80.3583 34.3568 80.6966 34.4596L81.1115 35.1349Z" fill="#24228D"/>
<path d="M69.6387 29.8077C69.6035 30.0855 69.5508 30.3585 69.4923 30.63C69.435 30.9018 69.368 31.171 69.2975 31.4393C69.2266 31.7075 69.1502 31.9742 69.0682 32.2394C68.9916 32.506 68.8974 32.7679 68.8123 33.0323L68.8106 33.0376C68.8066 33.0498 68.8008 33.0615 68.7933 33.0723C68.5902 33.3634 68.3831 33.6524 68.1659 33.9358C67.9464 34.2179 67.7226 34.4976 67.4756 34.7646C67.6151 34.4383 67.7778 34.1247 67.9448 33.8136C68.1141 33.5038 68.2935 33.1995 68.4769 32.8974L68.4579 32.9373C68.5401 32.6722 68.6131 32.4046 68.7038 32.1417C68.7885 31.8773 68.8793 31.6144 68.9763 31.3533C69.073 31.092 69.1733 30.8317 69.2832 30.574C69.392 30.316 69.5065 30.0595 69.6387 29.8077Z" fill="#24228D"/>
<path d="M71.2067 34.2626C71.2593 34.3604 71.2886 34.4673 71.2928 34.5764C71.2971 34.6854 71.276 34.794 71.2311 34.895C71.2174 34.9323 71.1953 34.9664 71.1662 34.9952C71.1371 35.0241 71.1018 35.0469 71.0625 35.0623C71.0785 34.9968 71.086 34.9297 71.0849 34.8625C71.0859 34.7972 71.0913 34.7322 71.0972 34.6663C71.1082 34.5269 71.1453 34.3904 71.2067 34.2626Z" fill="#24228D"/>
<path d="M75.0615 35.1349C75.5007 34.974 75.9186 34.7676 76.3071 34.5196C76.6897 34.2763 77.0497 34.004 77.3833 33.7057C77.5482 33.5546 77.7147 33.4048 77.8647 33.2396C78.0293 33.0861 78.1654 32.9104 78.319 32.7458C78.3981 32.6648 78.462 32.5737 78.5341 32.4873L78.7496 32.2263C78.8887 32.0487 79.0201 31.8653 79.1724 31.6892C79.0968 31.9004 79.0085 32.1087 78.9128 32.3145C78.8002 32.5114 78.6991 32.7174 78.5652 32.9049C78.3075 33.2891 78.0006 33.6435 77.6513 33.9605C77.2965 34.2757 76.8956 34.5437 76.4602 34.7568C76.0298 34.9758 75.5522 35.1049 75.0615 35.1349Z" fill="#24228D"/>
<path d="M73.1285 23.8878C73.3131 22.8921 73.5391 21.9074 73.7691 20.925L74.1155 19.4548C74.1745 19.2107 74.235 18.9672 74.2785 18.7244C74.2985 18.6046 74.307 18.4917 74.3233 18.3525C74.3421 18.2242 74.3686 18.097 74.4027 17.9714C74.538 17.4778 74.7217 16.9965 74.9517 16.5336C75.0671 16.3019 75.1999 16.0779 75.3491 15.8632C75.4967 15.6439 75.6696 15.4399 75.8646 15.2547C76.2617 14.859 76.8032 14.6119 77.3856 14.5607C77.5318 14.5504 77.6787 14.5511 77.8248 14.5627C77.9691 14.5779 78.1121 14.6026 78.2527 14.6365C78.5304 14.7043 78.7995 14.799 79.0555 14.9191L78.9229 14.9029C79.2249 14.8462 79.5356 14.8417 79.8393 14.8897C80.1492 14.9368 80.4417 15.0533 80.6911 15.2291C80.8152 15.3183 80.9277 15.4204 81.0265 15.5333C81.071 15.5919 81.1108 15.6534 81.1526 15.7135C81.1968 15.7715 81.2335 15.8342 81.2618 15.9001C81.3272 16.0257 81.3778 16.1575 81.4128 16.293C81.4527 16.4246 81.4804 16.559 81.4956 16.6949C81.5064 16.8293 81.5307 16.9636 81.5292 17.0973L81.517 17.4972C81.5029 17.7591 81.4726 18.0079 81.4664 18.2654C81.4565 18.5202 81.4611 18.7754 81.4802 19.0298C81.4786 19.2819 81.5542 19.5293 81.6983 19.7436L81.7002 19.7458C81.703 19.7493 81.7044 19.7536 81.7041 19.7579C81.7037 19.7622 81.7017 19.7663 81.6983 19.7693C81.6949 19.7723 81.6904 19.7741 81.6857 19.7742C81.6809 19.7744 81.6763 19.7729 81.6727 19.7701C81.5666 19.6766 81.487 19.5605 81.4412 19.432C81.3947 19.3068 81.3574 19.179 81.3294 19.0493C81.2771 18.7913 81.2441 18.5304 81.2307 18.2682C81.212 18.009 81.2123 17.7413 81.2108 17.487L81.1953 17.1119C81.1868 16.9876 81.1595 16.8664 81.1432 16.744C81.1237 16.6235 81.0928 16.5048 81.0509 16.3893C81.015 16.2749 80.9677 16.1639 80.9096 16.0576C80.8856 16.0036 80.8539 15.9528 80.8154 15.9065C80.78 15.8589 80.7471 15.8095 80.7107 15.763C80.6303 15.6771 80.54 15.5996 80.4413 15.5319C80.2439 15.3912 80.0115 15.298 79.7652 15.2608C79.5155 15.2161 79.2593 15.212 79.0081 15.2487L78.9962 15.2505C78.9549 15.2571 78.9124 15.2507 78.8755 15.2325C78.4296 14.9911 77.9221 14.8631 77.4048 14.8616C76.8848 14.8804 76.3889 15.0683 76.0051 15.3919C75.6056 15.725 75.2839 16.1294 75.0595 16.5805C74.8244 17.0304 74.6633 17.51 74.5817 18.0036C74.5611 18.1247 74.5478 18.2467 74.542 18.3692C74.5397 18.4808 74.5423 18.6201 74.5328 18.7504C74.5095 19.0073 74.4779 19.2604 74.4326 19.5104C74.3467 20.0114 74.2214 20.5033 74.092 20.9935C73.8298 21.9731 73.5294 22.943 73.1658 23.8967C73.1642 23.9009 73.1609 23.9044 73.1566 23.9065C73.1523 23.9086 73.1473 23.9092 73.1426 23.908C73.1379 23.9069 73.1339 23.9042 73.1313 23.9004C73.1286 23.8967 73.1276 23.8922 73.1285 23.8877L73.1285 23.8878Z" fill="#24228D"/>
<path d="M66.2793 35.3882C66.3348 35.272 66.4105 35.165 66.5034 35.0714C66.5983 34.9746 66.7081 34.8912 66.8293 34.8238C67.0772 34.6908 67.3559 34.614 67.6423 34.5997L67.6282 34.6007C67.8241 34.5811 68.022 34.5837 68.2173 34.6084C68.4104 34.6326 68.5995 34.6788 68.7802 34.7459C68.9611 34.8138 69.129 34.9078 69.2778 35.0243C69.4244 35.1381 69.5441 35.2785 69.6293 35.4367C69.482 35.341 69.326 35.2573 69.163 35.1866C69.007 35.1203 68.8441 35.0689 68.6768 35.0332C68.3478 34.9608 68.0095 34.931 67.6716 34.9447L67.6574 34.9457C67.4156 34.9457 67.1754 34.9805 66.9453 35.0489C66.8277 35.0852 66.7141 35.1317 66.6059 35.1875C66.4923 35.2476 66.3832 35.3146 66.2793 35.3882Z" fill="#24228D"/>
<path d="M69.6386 36.6393C68.4861 39.1891 66.7004 38.1832 66.7004 38.1832C66.7004 38.1832 67.502 37.7384 67.6397 35.6049C67.6397 35.6049 67.9878 35.1357 68.4371 35.6049C68.8126 35.9735 69.2139 36.3191 69.6386 36.6393Z" fill="white"/>
<path d="M69.6552 36.6354C69.6156 36.7664 69.5662 36.918 69.5063 37.0739C69.4399 37.2197 69.3642 37.3503 69.2877 37.4883C69.2449 37.5541 69.1953 37.6166 69.1473 37.6801C69.1017 37.7456 69.0505 37.8076 68.9941 37.8655L68.8172 38.0357C68.7534 38.0892 68.6863 38.1393 68.6162 38.1856C68.3331 38.3761 67.9892 38.4743 67.6388 38.4648C67.3011 38.4545 66.9706 38.3721 66.6735 38.224C66.6661 38.2204 66.6598 38.2152 66.6552 38.2087C66.6506 38.2023 66.6478 38.1949 66.6471 38.1872C66.6465 38.1795 66.6479 38.1718 66.6514 38.1647C66.6548 38.1577 66.6601 38.1516 66.6668 38.147L66.6738 38.1422C66.8571 37.996 66.9955 37.808 67.0753 37.5971C67.165 37.3864 67.2331 37.1684 67.2785 36.946C67.3075 36.8365 67.3235 36.7232 67.3486 36.6129C67.366 36.5004 67.3853 36.3885 67.3999 36.2758C67.4108 36.1623 67.4248 36.0495 67.4334 35.936C67.4382 35.8219 67.4495 35.7085 67.4587 35.5949L67.4595 35.5852C67.4616 35.5581 67.4722 35.5321 67.49 35.5105C67.5729 35.4002 67.6903 35.3157 67.8264 35.2682C67.8994 35.2432 67.9771 35.2325 68.0548 35.2366C68.1325 35.2407 68.2084 35.2596 68.2777 35.2921C68.3925 35.3501 68.4928 35.4296 68.5722 35.5255C68.6389 35.5996 68.7069 35.6741 68.7769 35.7479C68.9176 35.8948 69.0628 36.0406 69.2093 36.1863L69.429 36.4062C69.5048 36.4834 69.5712 36.5438 69.6552 36.6354ZM69.6222 36.643C69.5289 36.5966 69.439 36.5445 69.3531 36.4872C69.2624 36.4312 69.1731 36.3733 69.0862 36.3126C68.9111 36.1924 68.7407 36.066 68.5771 35.9302C68.4943 35.8634 68.4142 35.7929 68.3366 35.7188C68.2789 35.6601 68.2095 35.612 68.1321 35.5774C68.1046 35.5651 68.0744 35.5585 68.0437 35.5582C68.0131 35.558 67.9828 35.564 67.9549 35.5758C67.8904 35.6048 67.8339 35.647 67.7898 35.6992L67.8212 35.6148C67.8101 35.7326 67.8012 35.8507 67.7858 35.9681C67.7694 36.0855 67.7474 36.2027 67.7285 36.3197C67.7058 36.4366 67.6783 36.553 67.6526 36.6692C67.6184 36.7844 67.5908 36.9004 67.5473 37.0134C67.4661 37.2411 67.359 37.4602 67.2278 37.667C67.1023 37.8811 66.9323 38.0704 66.7275 38.2242L66.7277 38.1424C66.8644 38.2111 67.0125 38.2584 67.166 38.2826C67.2427 38.2942 67.3204 38.2992 67.3981 38.2978C67.4747 38.2992 67.5514 38.2936 67.6269 38.2812C67.921 38.2312 68.1989 38.1201 68.4394 37.9563C68.6857 37.7891 68.9047 37.5902 69.0894 37.3655C69.1752 37.2469 69.2755 37.1277 69.3601 37.0114L69.6222 36.643Z" fill="#24228D"/>
<path d="M68.6353 32.9848C68.7307 32.9317 68.8355 32.8946 68.945 32.8753C69.0521 32.8542 69.1614 32.8436 69.2709 32.8438C69.4921 32.841 69.7105 32.8895 69.906 32.9848C69.7992 33.0024 69.6911 33.0127 69.5826 33.0156C69.4775 33.0202 69.3737 33.0208 69.27 33.0212C69.0578 33.022 68.8457 33.0099 68.6353 32.9848Z" fill="#24228D"/>
<path d="M60.1271 42.1757C59.9572 42.215 59.7973 42.2842 59.6562 42.3797C59.5123 42.4724 59.3775 42.5764 59.2531 42.6905C59.003 42.9197 58.7726 43.1664 58.564 43.4284C58.1486 43.9561 57.7644 44.5041 57.4131 45.0699C56.7004 46.1981 56.0788 47.374 55.4656 48.5521C54.857 49.7326 54.2823 50.9285 53.7288 52.1325C53.1738 53.3356 52.622 54.542 52.105 55.7581L52.0756 55.6101C52.5546 56.1093 53.064 56.593 53.588 57.0573C54.1107 57.5233 54.661 57.9623 55.2363 58.3725C55.7995 58.7918 56.428 59.1308 57.1007 59.378C57.4299 59.4993 57.7885 59.5369 58.1388 59.4869C58.3089 59.4528 58.4684 59.3836 58.6051 59.2843C58.7418 59.1851 58.8522 59.0585 58.9278 58.9141L58.9284 58.913C58.9327 58.9054 58.9388 58.8988 58.9463 58.8939C58.9538 58.8889 58.9625 58.8857 58.9717 58.8844C59.3059 58.8431 59.6449 58.8471 59.9778 58.8962C60.3115 58.9418 60.6342 59.04 60.9318 59.1863C61.0808 59.2597 61.2222 59.3455 61.3541 59.4427C61.4837 59.5428 61.6028 59.6538 61.7097 59.7744C61.8186 59.8933 61.9153 60.0211 61.9987 60.1563C62.0853 60.2894 62.1443 60.4355 62.2181 60.5747L62.1651 60.5344C62.8876 60.5957 63.6162 60.5313 64.3128 60.3443C65.0123 60.1641 65.6831 59.9004 66.3083 59.5599L66.768 59.2919C66.9228 59.2049 67.0608 59.0946 67.2079 58.9972C67.4983 58.797 67.7767 58.5824 68.0418 58.3543C68.1821 58.2482 68.3025 58.1221 68.4306 58.0038L68.8105 57.6447C69.0484 57.3919 69.2779 57.1322 69.512 56.8767L69.4786 56.9876L68.712 51.7054L68.3347 49.0637L67.9726 46.4201C67.9689 46.3925 67.972 46.3645 67.9817 46.3382C67.9914 46.3119 68.0075 46.288 68.0288 46.2682C68.0501 46.2485 68.0759 46.2335 68.1044 46.2243C68.1329 46.2151 68.1633 46.212 68.1933 46.2153L68.1959 46.2156C69.5638 46.3628 70.9393 46.4413 72.3165 46.4509C73.6938 46.472 75.0708 46.3957 76.4354 46.2228C77.7909 46.0359 79.1495 45.7485 80.3672 45.1662C80.9791 44.8828 81.53 44.4994 81.9931 44.0346C82.4521 43.5607 82.7747 42.9881 82.9311 42.3696C82.9323 42.3651 82.9353 42.3611 82.9396 42.3586C82.9438 42.3561 82.949 42.3553 82.9539 42.3563C82.9588 42.3572 82.9632 42.3599 82.966 42.3638C82.9688 42.3677 82.9698 42.3724 82.9688 42.3769C82.8361 43.0126 82.5323 43.6074 82.0852 44.1069C81.632 44.6036 81.0805 45.0165 80.4599 45.3236C79.8444 45.633 79.1951 45.8814 78.5228 46.0647C77.8538 46.2514 77.1717 46.3956 76.4814 46.4964C75.1031 46.693 73.7105 46.7918 72.3159 46.792C71.6195 46.7978 70.9232 46.7796 70.2281 46.7431C69.532 46.7063 68.841 46.6565 68.1434 46.5782L68.3666 46.3737L68.739 49.016L69.0962 51.6602L69.7987 56.9498L69.7997 56.9574C69.8021 56.9759 69.8003 56.9946 69.7944 57.0124C69.7885 57.0302 69.7786 57.0467 69.7653 57.0608C69.5214 57.3189 69.282 57.5806 69.0343 57.8351L68.6388 58.1971C68.5104 58.321 68.3752 58.4386 68.2337 58.5495C67.9556 58.777 67.6643 58.9904 67.3611 59.1889C67.2075 59.2854 67.0634 59.3945 66.9021 59.4804L66.4233 59.7444C65.7732 60.0786 65.0791 60.3343 64.3581 60.5054C63.6353 60.681 62.8838 60.7338 62.1405 60.6613C62.1302 60.6602 62.1203 60.6567 62.1118 60.6511C62.1033 60.6455 62.0965 60.6381 62.0919 60.6295L62.0874 60.621C62.0173 60.4873 61.9621 60.3459 61.8803 60.2182C61.8019 60.0886 61.7107 59.966 61.6078 59.8519C61.5071 59.7365 61.3949 59.63 61.2726 59.5339C61.1477 59.4405 61.0138 59.3579 60.8726 59.287C60.5883 59.1445 60.2795 59.0482 59.9597 59.0022C59.64 58.9564 59.3146 58.9548 58.9945 58.9977L59.0382 58.9681L58.8854 59.1899C58.8188 59.2533 58.7582 59.323 58.6853 59.3805C58.5354 59.4943 58.358 59.5729 58.168 59.6099C57.793 59.6688 57.4077 59.6333 57.0528 59.5074C56.3603 59.2642 55.7088 58.9317 55.1177 58.5199C54.5236 58.1197 53.9542 57.6892 53.4122 57.2306C52.8688 56.7734 52.345 56.3014 51.8407 55.8027C51.8214 55.7836 51.8083 55.7599 51.8029 55.7343C51.7974 55.7086 51.7999 55.6821 51.81 55.6577L51.8113 55.6547C52.3208 54.4286 52.8509 53.2128 53.4154 52.0087C53.9838 50.8065 54.5735 49.6126 55.1976 48.4332C55.8208 47.2536 56.4947 46.0952 57.2377 44.9733C57.6068 44.4097 58.0149 43.8686 58.4593 43.3533C58.6825 43.0948 58.9272 42.8528 59.1911 42.6292C59.3235 42.5167 59.4672 42.4161 59.6203 42.3286C59.7721 42.2368 59.9418 42.173 60.12 42.1409C60.1249 42.1401 60.13 42.1412 60.1341 42.1438C60.1382 42.1465 60.1411 42.1505 60.142 42.1551C60.1429 42.1597 60.1419 42.1644 60.1391 42.1682C60.1363 42.1721 60.132 42.1748 60.1271 42.1757L60.1271 42.1757Z" fill="#24228D"/>
<path d="M87.1218 24.7798C87.4045 24.6929 87.7009 24.6502 87.9989 24.6533C88.3034 24.6522 88.6054 24.7043 88.8889 24.8068C89.1761 24.9186 89.432 25.0889 89.6373 25.3049C89.8394 25.5223 89.9978 25.771 90.1051 26.0395C90.3071 26.5687 90.4036 27.1271 90.3901 27.6879C90.378 28.2362 90.329 28.7834 90.2435 29.3262C90.0901 30.403 89.9049 31.477 89.6551 32.5396C89.422 33.606 89.0913 34.6523 88.6664 35.6672C88.8155 35.1423 88.943 34.6142 89.0488 34.0827C89.1621 33.5525 89.2621 33.0202 89.3597 32.4879C89.5477 31.4218 89.715 30.3529 89.8614 29.2811C89.9495 28.7524 90.0045 28.2195 90.0263 27.685C90.0532 27.1607 89.9845 26.6359 89.823 26.1326C89.7471 25.8855 89.6184 25.6549 89.4445 25.4542C89.2706 25.2536 89.0549 25.0869 88.8102 24.9639C88.2839 24.7356 87.6914 24.671 87.1218 24.7798Z" fill="black" fill-opacity="0.5"/>
<path d="M68.3286 47.4841C69.5526 47.7145 70.7747 47.9274 72.0005 48.1144L73.8411 48.3794C74.4545 48.4701 75.071 48.5452 75.6904 48.6045C76.3103 48.656 76.933 48.6722 77.5551 48.6531C78.1756 48.6297 78.7938 48.5679 79.4053 48.4678C80.0122 48.3708 80.6104 48.2319 81.1947 48.0524C81.774 47.8804 82.328 47.6428 82.8437 47.3451L82.8509 47.3413L82.8758 47.3301C83.1126 47.2175 83.3346 47.0804 83.5375 46.9214C83.7494 46.7574 83.9506 46.5819 84.14 46.396C84.5174 46.0136 84.8537 45.5985 85.1441 45.1563C85.4406 44.7112 85.7073 44.2497 85.9425 43.7745L86.2757 43.0483C86.3756 42.8017 86.4731 42.5538 86.5785 42.307L86.5788 42.3062C86.5806 42.302 86.584 42.2986 86.5884 42.2967C86.5928 42.2947 86.5978 42.2944 86.6024 42.2957C86.6071 42.297 86.611 42.2999 86.6135 42.3038C86.6159 42.3076 86.6167 42.3122 86.6156 42.3166C86.5525 42.5749 86.4815 42.8321 86.4129 43.0907C86.3319 43.3456 86.2425 43.5988 86.151 43.8517C85.9581 44.357 85.7209 44.847 85.4418 45.3169C85.1631 45.7933 84.8267 46.2391 84.4392 46.646C84.3382 46.7454 84.2379 46.8458 84.133 46.9423C84.0214 47.0331 83.9175 47.1307 83.7981 47.2145C83.5647 47.3996 83.3042 47.5536 83.0243 47.6722L83.0564 47.6572C81.9473 48.241 80.7113 48.5907 79.4376 48.6812C78.188 48.7722 76.9337 48.7959 75.6812 48.7522C75.055 48.741 74.429 48.7118 73.8032 48.6644C73.1785 48.6122 72.5581 48.525 71.9425 48.4173C70.7091 48.2109 69.4966 47.9102 68.3175 47.5181C68.3127 47.5165 68.3088 47.5132 68.3067 47.5089C68.3046 47.5046 68.3044 47.4997 68.3061 47.4953C68.3079 47.4913 68.3111 47.488 68.3152 47.4859C68.3193 47.4839 68.324 47.4833 68.3286 47.4841Z" fill="#24228D"/>
<path d="M69.2705 35.1349C70.2647 35.0615 71.259 35.0231 72.2532 34.997C73.2475 34.9687 74.2417 34.9611 75.236 34.9576C76.2302 34.9607 77.2245 34.9682 78.2188 34.9965C79.213 35.0225 80.2073 35.0611 81.2015 35.1349C80.2073 35.2088 79.213 35.2474 78.2188 35.2734C77.2245 35.3016 76.2302 35.3092 75.236 35.3123C74.2417 35.3088 73.2475 35.3012 72.2532 35.2729C71.259 35.2468 70.2647 35.2084 69.2705 35.1349Z" fill="#24228D"/>
<path d="M85.3863 35.6669L84.8863 35.659C84.4948 35.9708 84.0098 36.1657 83.4953 36.2181C83.1583 36.2447 82.8191 36.2044 82.5005 36.0998C82.1819 35.9953 81.8913 35.8289 81.6486 35.612L69.6294 35.4366C69.9063 35.7569 70.0722 36.1465 70.1055 36.5548C70.1055 36.5548 69.9065 37.272 68.3642 35.5228C68.3642 35.5228 67.7503 35.2988 67.621 35.6402C67.4935 35.9832 67.6074 38.6909 65.7216 38.3369C65.7216 38.3369 65.4053 36.4076 66.2793 35.3881L64.7229 35.3653V35.5803C64.7229 35.7098 64.6952 35.8381 64.6414 35.9577C64.5876 36.0774 64.5087 36.1861 64.4092 36.2777C64.3098 36.3692 64.1918 36.4419 64.0618 36.4914C63.9319 36.541 63.7926 36.5665 63.652 36.5665H56.2099L56.2752 37.6166C56.2752 37.5477 56.2786 37.5085 56.2786 37.5085H59.326L56.9265 39.7307H53.1922C52.8634 39.7305 52.548 39.6111 52.3141 39.3983C52.0802 39.1855 51.9466 38.8965 51.9423 38.5938L51.9151 36.5665H44.5478C44.4071 36.5665 44.2679 36.541 44.138 36.4914C44.008 36.4419 43.89 36.3692 43.7905 36.2777C43.6911 36.1861 43.6122 36.0774 43.5584 35.9577C43.5046 35.8381 43.4769 35.7098 43.4769 35.5803V35.0624H40.5608L29.6809 41.0321C34.9168 40.9898 40.1527 40.9668 45.3885 40.9632C50.6261 40.946 55.862 40.9632 61.0979 40.9694C66.3338 40.971 71.5697 41.0039 76.8072 41.0289L84.6602 41.0744L92.486 41.1417L94.9959 39.7777L97.5364 38.4058L102.623 35.6669L85.3863 35.6669ZM79.5722 39.0338L67.4544 38.9539L68.1703 38.2618L69.5885 36.7459H81.4853L79.5722 39.0338Z" fill="black" fill-opacity="0.5"/>
<path d="M56.2106 36.5423C56.9612 36.5184 57.7119 36.502 58.4625 36.4859C59.2132 36.4696 59.9638 36.4507 60.7145 36.4426L62.9664 36.4107L63.5294 36.4028C63.5749 36.4017 63.6262 36.4023 63.6671 36.4C63.7062 36.3987 63.7451 36.3949 63.7837 36.3887C63.8604 36.3772 63.9352 36.3564 64.006 36.3269C64.1465 36.2674 64.2678 36.1754 64.358 36.0597C64.4482 35.9441 64.5042 35.8088 64.5205 35.6672L64.4975 31.539C64.4903 30.1565 64.4949 28.7739 64.5111 27.3914L64.5814 23.2437L64.6185 21.1699C64.6278 21.0513 64.6115 20.9321 64.5704 20.8194C64.5293 20.7066 64.4644 20.6025 64.3793 20.513C64.2942 20.4236 64.1907 20.3505 64.0747 20.2982C63.9588 20.2458 63.8327 20.2152 63.7038 20.208C63.5253 20.2012 63.331 20.203 63.1454 20.2018C60.1428 20.188 57.1402 20.2139 54.1377 20.2542C51.1351 20.2993 48.1325 20.3301 45.13 20.3466L44.567 20.3495C44.4201 20.3485 44.2754 20.3827 44.1472 20.4487C44.0216 20.5146 43.9169 20.6098 43.8438 20.7246C43.7707 20.8395 43.7316 20.9701 43.7305 21.1032L43.743 23.1748L43.7492 27.3225L43.723 31.4701L43.6785 35.6109C43.6828 35.7532 43.7276 35.8919 43.8084 36.0131C43.8892 36.1344 44.0031 36.2341 44.1388 36.3021C44.2792 36.3718 44.4369 36.4067 44.5963 36.4034L45.1593 36.4121L47.4112 36.447C48.9125 36.4716 50.4138 36.5034 51.9151 36.5423C51.9217 36.5425 51.928 36.545 51.9327 36.5494C51.9373 36.5538 51.9399 36.5597 51.9399 36.5658C51.9399 36.5719 51.9373 36.5778 51.9327 36.5822C51.928 36.5866 51.9217 36.5891 51.9151 36.5893C50.4138 36.6283 48.9125 36.6601 47.4112 36.6846L45.1593 36.7194L44.5963 36.7281C44.3787 36.7368 44.1622 36.6946 43.9671 36.6055C43.7683 36.5129 43.5999 36.3732 43.4791 36.2008C43.3583 36.0284 43.2896 35.8295 43.2799 35.6246L43.2313 31.4701L43.2051 27.3225L43.2113 23.1748L43.2248 21.0987C43.2288 20.8845 43.294 20.675 43.4138 20.4914C43.5336 20.3077 43.7037 20.1563 43.9071 20.0524C44.1094 19.9508 44.3366 19.8989 44.567 19.9017L45.13 19.9046C48.1325 19.9184 51.1351 19.9491 54.1377 19.997C57.1402 20.0373 60.1428 20.0632 63.1454 20.0494C63.335 20.0505 63.5163 20.0448 63.7128 20.0484C63.9172 20.0559 64.1157 20.1134 64.2878 20.215C64.4608 20.3171 64.6014 20.4594 64.6956 20.6275C64.7427 20.7116 64.7779 20.8009 64.8003 20.8932C64.8191 20.9844 64.8284 21.077 64.8282 21.1699L64.8654 23.2437L64.9357 27.3914C64.9509 28.7739 64.9554 30.1565 64.9493 31.539L64.9401 33.6129L64.9309 34.6498L64.926 35.1683L64.9235 35.4275L64.9223 35.5571C64.9219 35.5995 64.9178 35.6569 64.9136 35.7058C64.8879 35.9095 64.8041 36.1033 64.6707 36.2674C64.5373 36.4316 64.3591 36.5603 64.1542 36.6404C64.0526 36.6795 63.9458 36.706 63.8366 36.7191C63.7824 36.7262 63.7278 36.7298 63.6731 36.73C63.6203 36.731 63.5776 36.7291 63.5294 36.7288L62.9664 36.7209L60.7145 36.689C59.9638 36.6809 59.2132 36.662 58.4625 36.6457C57.7119 36.6296 56.9612 36.6132 56.2106 36.5893C56.204 36.5891 56.1977 36.5865 56.1931 36.5821C56.1885 36.5778 56.186 36.5719 56.186 36.5658C56.186 36.5597 56.1885 36.5539 56.1931 36.5495C56.1977 36.5451 56.204 36.5425 56.2106 36.5423V36.5423Z" fill="black" fill-opacity="0.5"/>
<path d="M55.9404 28.0203C55.9456 28.5305 55.759 29.0267 55.4123 29.4247C55.2258 29.6275 54.9915 29.7885 54.7272 29.8953C54.4629 30.0022 54.1757 30.052 53.8873 30.041C53.3198 30.0069 52.7886 29.772 52.405 29.3854C52.0185 29.0157 51.7858 28.5323 51.748 28.0203C51.7283 27.7563 51.7692 27.4915 51.8679 27.243C51.9666 26.9945 52.121 26.7679 52.321 26.5779C52.5231 26.3835 52.7647 26.2277 53.0321 26.1191C53.3012 26.0107 53.5922 25.9558 53.8859 25.958C54.1796 25.9603 54.4696 26.0196 54.7367 26.1321C54.9996 26.243 55.2316 26.4076 55.4151 26.6133C55.7628 27.0117 55.9485 27.5093 55.9404 28.0203ZM55.9019 28.0203C55.8998 27.7776 55.8367 27.5386 55.7176 27.3221C55.5996 27.1121 55.4356 26.927 55.2358 26.7785C54.855 26.4924 54.3786 26.3363 53.8873 26.3366C53.401 26.3383 52.9333 26.5088 52.5773 26.8139C52.2174 27.1325 51.9972 27.5619 51.9589 28.0203C51.942 28.2561 51.9795 28.4925 52.0688 28.7139C52.1609 28.9373 52.3059 29.1389 52.4933 29.304C52.6811 29.4607 52.9015 29.5806 53.1411 29.6565C53.3807 29.7324 53.6346 29.7627 53.8873 29.7456C54.382 29.7227 54.8557 29.5541 55.2386 29.2648C55.4386 29.1158 55.6027 28.9301 55.7206 28.7196C55.8395 28.5027 55.9015 28.2632 55.9019 28.0203Z" fill="black" fill-opacity="0.5"/>
<path d="M63.1809 35.1344C62.5921 35.1969 62.0034 35.2284 61.4147 35.2491C60.8261 35.2717 60.2375 35.2761 59.649 35.2768C59.0605 35.2717 58.472 35.2627 57.8836 35.2355C57.2952 35.2102 56.7069 35.1738 56.1187 35.1062C56.7075 35.0434 57.2961 35.0117 57.8848 34.9911C58.4734 34.9685 59.062 34.9642 59.6505 34.9638C60.239 34.9693 60.8275 34.9783 61.4159 35.0056C62.0043 35.031 62.5926 35.0673 63.1809 35.1344Z" fill="black" fill-opacity="0.5"/>
<path d="M51.8947 35.089C51.3215 35.1516 50.7484 35.1833 50.1754 35.2041C49.6023 35.2269 49.0293 35.2313 48.4564 35.2322C47.8835 35.2273 47.3106 35.2184 46.7378 35.1912C46.1649 35.1661 45.5922 35.1298 45.0195 35.0624C45.5928 34.9994 46.1659 34.9676 46.7389 34.9468C47.3119 34.9242 47.8849 34.9197 48.4578 34.9192C49.0308 34.9245 49.6037 34.9334 50.1765 34.9606C50.7493 34.9859 51.3221 35.022 51.8947 35.089Z" fill="#24228D"/>
<path d="M58.9829 58.941C59.2006 58.0417 59.4636 57.1543 59.745 56.2721C60.0246 55.3894 60.3323 54.5146 60.6549 53.6441C60.9852 52.7761 61.3278 51.9113 61.7188 51.0626C61.9124 50.6377 62.1182 50.217 62.3429 49.8038C62.4595 49.5989 62.5752 49.3937 62.708 49.1964C62.8283 48.9917 62.9885 48.8092 63.1807 48.6581C63.0952 48.7409 63.0232 48.8346 62.967 48.9364C62.907 49.0361 62.8524 49.1381 62.8022 49.2428C62.6995 49.4503 62.6057 49.6621 62.5156 49.875C62.3337 50.3005 62.1674 50.7322 61.9991 51.163L61.5068 52.4603L61.0189 53.76C60.69 54.6256 60.3676 55.4936 60.0299 56.3575C59.6951 57.2223 59.353 58.0851 58.9829 58.941Z" fill="#24228D"/>
<path d="M62.1529 60.5978C62.0389 59.8339 61.9629 59.0685 61.9002 58.3027C61.8352 57.5369 61.7927 56.7703 61.7545 56.0035C61.7236 55.2364 61.6975 54.4692 61.6937 53.7011C61.6876 52.933 61.6952 52.1645 61.741 51.3945C61.8555 52.1584 61.9317 52.9238 61.9942 53.6896C62.0592 54.4554 62.1017 55.2221 62.1393 55.9889C62.1698 56.756 62.196 57.5232 62.1996 58.2913C62.2056 59.0593 62.1982 59.8279 62.1529 60.5978Z" fill="#24228D"/>
<path d="M78.3746 18.916C78.4495 18.9136 78.5205 18.8846 78.5726 18.8349C78.6248 18.7852 78.6539 18.7189 78.6539 18.6498C78.6539 18.5807 78.6248 18.5144 78.5726 18.4647C78.5205 18.415 78.4495 18.386 78.3746 18.3836C78.2996 18.386 78.2286 18.415 78.1765 18.4647C78.1243 18.5144 78.0952 18.5807 78.0952 18.6498C78.0952 18.7189 78.1243 18.7852 78.1765 18.8349C78.2286 18.8846 78.2996 18.9136 78.3746 18.916Z" fill="#24228D"/>
<path d="M80.0916 18.916C80.1666 18.9136 80.2376 18.8846 80.2897 18.8349C80.3418 18.7852 80.371 18.7189 80.371 18.6498C80.371 18.5807 80.3418 18.5144 80.2897 18.4647C80.2376 18.415 80.1666 18.386 80.0916 18.3836C80.0167 18.386 79.9456 18.415 79.8935 18.4647C79.8414 18.5144 79.8123 18.5807 79.8123 18.6498C79.8123 18.7189 79.8414 18.7852 79.8935 18.8349C79.9456 18.8846 80.0167 18.9136 80.0916 18.916Z" fill="#24228D"/>
<path d="M80.5945 18.0429C80.5057 18.056 80.4161 18.0648 80.3262 18.0692C80.2448 18.0754 80.1688 18.0755 80.0924 18.0771C80.0162 18.078 79.9401 18.0756 79.8587 18.0717C79.768 18.0689 79.6776 18.0593 79.5886 18.0429C79.6425 17.9658 79.7199 17.9052 79.8111 17.8686C79.899 17.831 79.9946 17.8113 80.0915 17.811C80.1883 17.8106 80.2841 17.8296 80.3723 17.8666C80.4649 17.902 80.5428 17.9637 80.5945 18.0429Z" fill="#24228D"/>
<path d="M78.6001 18.0429C78.525 18.0635 78.4481 18.0781 78.3703 18.0863C78.3054 18.0943 78.2401 18.0983 78.1746 18.0983C78.1097 18.0982 78.0449 18.0943 77.9805 18.0865C77.9024 18.0788 77.8253 18.0642 77.7502 18.0429C77.7919 17.9723 77.8573 17.9161 77.9366 17.8827C78.0106 17.8482 78.0927 17.8309 78.1756 17.8322C78.2581 17.8317 78.3396 17.8492 78.4134 17.8832C78.493 17.9161 78.5586 17.9722 78.6001 18.0429Z" fill="#24228D"/>
<path d="M79.8142 19.2248C79.8142 19.2672 79.8047 19.3091 79.7863 19.3479C79.7679 19.3868 79.741 19.4217 79.7072 19.4505C79.6402 19.5108 79.556 19.5525 79.4644 19.5709C79.3765 19.588 79.2857 19.5874 79.1981 19.5691C79.1125 19.5511 79.0325 19.5153 78.9644 19.4644C79.0446 19.4484 79.1259 19.4372 79.2077 19.4309C79.2828 19.4184 79.3554 19.4153 79.4222 19.3978C79.5667 19.3718 79.7016 19.3122 79.8142 19.2248Z" fill="#24228D"/>
<path d="M78.7136 20.3033C78.7316 20.2643 78.7582 20.2291 78.7916 20.2C78.825 20.1709 78.8646 20.1484 78.9079 20.134C78.9953 20.1027 79.0904 20.0946 79.1825 20.1107C79.2707 20.1266 79.354 20.1599 79.4269 20.2083C79.498 20.2557 79.5564 20.3174 79.5975 20.3888C79.5169 20.3747 79.4373 20.3557 79.3593 20.332C79.285 20.3164 79.2168 20.2932 79.1479 20.2852C79.0039 20.2571 78.8544 20.2634 78.7136 20.3033Z" fill="#24228D"/>
<path d="M79.1556 17.9242C79.2305 17.9219 79.3015 17.8928 79.3536 17.8431C79.4058 17.7935 79.4349 17.7271 79.4349 17.658C79.4349 17.589 79.4058 17.5226 79.3536 17.473C79.3015 17.4233 79.2305 17.3942 79.1556 17.3918C79.0806 17.3942 79.0096 17.4233 78.9575 17.473C78.9053 17.5226 78.8762 17.589 78.8762 17.658C78.8762 17.7271 78.9053 17.7935 78.9575 17.8431C79.0096 17.8928 79.0806 17.9219 79.1556 17.9242Z" fill="#B21919"/>
<path d="M74.4697 48.5888V61.4806C74.4697 61.4806 77.3832 62.5428 79.1724 61.4806V48.5888" fill="black" fill-opacity="0.5"/>
<path d="M83.4802 61.5459C83.4734 61.6119 83.4519 61.6759 83.4172 61.734C83.3825 61.7921 83.3353 61.843 83.2785 61.8837C83.1685 61.9692 83.0475 62.0418 82.9182 62.0999C82.66 62.2164 82.3907 62.3109 82.1138 62.3821C81.561 62.5277 80.9982 62.639 80.4292 62.7152C79.2908 62.8734 78.1422 62.9608 76.9911 62.9769C75.8369 63.0009 74.6823 62.9508 73.5358 62.8268C72.9582 62.7624 72.3863 62.6601 71.8244 62.5209C71.5373 62.4491 71.258 62.3531 70.9899 62.2341C70.8476 62.1711 70.7143 62.092 70.5932 61.9987C70.5128 61.9486 70.4469 61.8812 70.4014 61.8022C70.3559 61.7232 70.3321 61.6352 70.332 61.5458C70.332 61.4564 70.3558 61.3684 70.4013 61.2894C70.4468 61.2104 70.5126 61.1429 70.593 61.0928C70.7141 60.9995 70.8474 60.9204 70.9898 60.8574C71.2578 60.7384 71.5372 60.6424 71.8244 60.5706C72.3861 60.4308 72.958 60.3285 73.5356 60.2643C74.6822 60.1399 75.8368 60.0897 76.991 60.1141C78.1422 60.1303 79.2909 60.2179 80.4292 60.3763C80.9982 60.4526 81.561 60.5639 82.1138 60.7096C82.3908 60.7808 82.66 60.8753 82.9182 60.9919C83.0475 61.05 83.1685 61.1226 83.2785 61.208C83.3354 61.2487 83.3826 61.2997 83.4172 61.3578C83.4519 61.4159 83.4733 61.4799 83.4802 61.5459ZM83.4802 61.5459C83.4729 61.4801 83.451 61.4164 83.4159 61.3587C83.3809 61.301 83.3334 61.2504 83.2764 61.2102C83.166 61.1258 83.0447 61.0543 82.9153 60.9972C82.6567 60.8827 82.3872 60.7902 82.1102 60.7211C81.5562 60.5838 80.9922 60.4831 80.4226 60.4198C79.2839 60.2968 78.1373 60.2473 76.9911 60.2715C75.8479 60.2877 74.7073 60.3747 73.5768 60.5318C73.0159 60.6071 72.461 60.7168 71.9159 60.8601C71.6491 60.9287 71.3898 61.0195 71.141 61.1316C71.0246 61.1838 70.9156 61.2489 70.8164 61.3254C70.7728 61.3466 70.7362 61.3783 70.7108 61.4172C70.6853 61.456 70.6718 61.5005 70.6718 61.5459C70.6718 61.5913 70.6852 61.6359 70.7106 61.6747C70.7361 61.7136 70.7726 61.7454 70.8162 61.7666C70.9154 61.8431 71.0245 61.9082 71.1409 61.9604C71.3897 62.0725 71.649 62.1634 71.9158 62.2319C72.4608 62.3757 73.0157 62.4855 73.5767 62.5606C74.7072 62.7181 75.8479 62.8051 76.9911 62.821C78.1373 62.8452 79.2839 62.7954 80.4226 62.6722C80.9922 62.6089 81.5562 62.5081 82.1102 62.3707C82.3872 62.3015 82.6567 62.2091 82.9153 62.0946C83.0447 62.0375 83.166 61.9659 83.2764 61.8815C83.3334 61.8413 83.3809 61.7908 83.4159 61.7331C83.451 61.6754 83.4729 61.6117 83.4802 61.5459Z" fill="black" fill-opacity="0.5"/>
<path d="M85.2843 22.7283L82.9495 22.282V23.267C82.95 24.5383 82.7195 25.8007 82.2676 27.002L81.7273 28.437L83.5369 31.4818C83.5369 31.4818 87.3113 31.7486 87.6531 31.722C87.6531 31.722 88.3384 23.1229 85.2843 22.7283ZM83.1349 29.5953C83.1111 29.3479 83.0924 29.1005 83.0907 28.8515C83.083 28.6024 83.1018 28.3533 83.1468 28.1076C83.1638 28.355 83.1978 28.5993 83.2233 28.8452L83.3049 29.5797C83.3525 30.0714 83.4002 30.5631 83.407 31.0611C83.2741 30.58 83.1831 30.0898 83.1349 29.5953ZM83.9766 31.0377C83.9104 31.0356 83.8477 31.01 83.8016 30.9662C83.7556 30.9223 83.7299 30.8637 83.7299 30.8028C83.7299 30.7418 83.7556 30.6832 83.8016 30.6393C83.8477 30.5955 83.9104 30.5699 83.9766 30.5678C84.0428 30.5698 84.1056 30.5955 84.1517 30.6393C84.1978 30.6831 84.2235 30.7417 84.2235 30.8028C84.2235 30.8638 84.1978 30.9224 84.1517 30.9662C84.1056 31.01 84.0428 31.0357 83.9766 31.0377V31.0377ZM85.0361 31.1676C84.97 31.1655 84.9074 31.1398 84.8615 31.096C84.8155 31.0521 84.7899 30.9936 84.7899 30.9327C84.7899 30.8718 84.8155 30.8133 84.8615 30.7695C84.9074 30.7257 84.97 30.7 85.0361 30.6978C85.1021 30.7 85.1647 30.7257 85.2107 30.7695C85.2566 30.8133 85.2823 30.8718 85.2823 30.9327C85.2823 30.9936 85.2566 31.0522 85.2107 31.096C85.1647 31.1398 85.1021 31.1655 85.0361 31.1676V31.1676ZM86.0291 31.2178C85.963 31.2157 85.9002 31.1901 85.8542 31.1463C85.8081 31.1024 85.7824 31.0438 85.7824 30.9828C85.7824 30.9219 85.8081 30.8633 85.8542 30.8194C85.9002 30.7756 85.963 30.75 86.0291 30.7479C86.0953 30.75 86.1581 30.7756 86.2041 30.8194C86.2502 30.8633 86.2759 30.9219 86.2759 30.9828C86.2759 31.0438 86.2502 31.1024 86.2041 31.1463C86.1581 31.1901 86.0953 31.2157 86.0291 31.2178V31.2178ZM87.0256 31.2961C86.9595 31.294 86.8967 31.2684 86.8507 31.2246C86.8046 31.1807 86.7789 31.1221 86.7789 31.0611C86.7789 31.0002 86.8046 30.9416 86.8507 30.8977C86.8967 30.8539 86.9595 30.8283 87.0256 30.8262C87.0918 30.8283 87.1546 30.8539 87.2006 30.8977C87.2467 30.9416 87.2724 31.0002 87.2724 31.0611C87.2724 31.1221 87.2467 31.1807 87.2006 31.2246C87.1546 31.2684 87.0918 31.294 87.0256 31.2961Z" fill="#24228D"/>
<path d="M81.4229 21.7409C81.6885 21.8025 81.9488 21.8822 82.2016 21.9795C82.4531 22.0738 82.6982 22.1689 82.95 22.2827C82.6708 22.2803 82.3948 22.2266 82.1384 22.1247C81.8794 22.0322 81.638 21.9027 81.4229 21.7409Z" fill="#24228D"/>
<path d="M76.6204 25.8504C76.8154 25.5297 77.0381 25.2239 77.2862 24.936C77.5284 24.6437 77.7959 24.3701 78.0862 24.1177C77.8915 24.4387 77.6688 24.7445 77.4203 25.0322C77.1779 25.3242 76.9104 25.5978 76.6204 25.8504Z" fill="#24228D"/>
<path d="M52.752 55.7694C52.8182 55.7673 52.8808 55.7417 52.9268 55.6978C52.9728 55.654 52.9985 55.5955 52.9985 55.5345C52.9985 55.4736 52.9728 55.415 52.9268 55.3712C52.8808 55.3274 52.8182 55.3017 52.752 55.2996C52.6859 55.3017 52.6233 55.3274 52.5773 55.3712C52.5313 55.415 52.5056 55.4736 52.5056 55.5345C52.5056 55.5955 52.5313 55.654 52.5773 55.6978C52.6233 55.7417 52.6859 55.7673 52.752 55.7694Z" fill="#24228D"/>
<path d="M53.5785 56.5869C53.6446 56.5848 53.7072 56.5592 53.7532 56.5153C53.7992 56.4715 53.8249 56.413 53.8249 56.352C53.8249 56.2911 53.7992 56.2325 53.7532 56.1887C53.7072 56.1449 53.6446 56.1192 53.5785 56.1171C53.5123 56.1192 53.4497 56.1449 53.4037 56.1887C53.3577 56.2325 53.332 56.2911 53.332 56.352C53.332 56.413 53.3577 56.4715 53.4037 56.5153C53.4497 56.5592 53.5123 56.5848 53.5785 56.5869Z" fill="#24228D"/>
<path d="M54.5272 57.4044C54.5933 57.4023 54.656 57.3766 54.7019 57.3328C54.7479 57.289 54.7736 57.2304 54.7736 57.1695C54.7736 57.1085 54.7479 57.05 54.7019 57.0062C54.656 56.9623 54.5933 56.9367 54.5272 56.9346C54.4611 56.9367 54.3984 56.9623 54.3524 57.0062C54.3065 57.05 54.2808 57.1085 54.2808 57.1695C54.2808 57.2304 54.3065 57.289 54.3524 57.3328C54.3984 57.3766 54.4611 57.4023 54.5272 57.4044Z" fill="#24228D"/>
<path d="M55.5679 58.1937C55.634 58.1916 55.6967 58.1659 55.7427 58.1221C55.7886 58.0783 55.8143 58.0197 55.8143 57.9588C55.8143 57.8978 55.7886 57.8393 55.7427 57.7955C55.6967 57.7517 55.634 57.726 55.5679 57.7239C55.5018 57.726 55.4392 57.7517 55.3932 57.7955C55.3472 57.8393 55.3215 57.8978 55.3215 57.9588C55.3215 58.0197 55.3472 58.0783 55.3932 58.1221C55.4392 58.1659 55.5018 58.1916 55.5679 58.1937Z" fill="#24228D"/>
<path d="M56.7618 58.8984C56.8279 58.8963 56.8906 58.8706 56.9366 58.8268C56.9825 58.783 57.0082 58.7244 57.0082 58.6635C57.0082 58.6026 56.9825 58.544 56.9366 58.5002C56.8906 58.4564 56.8279 58.4307 56.7618 58.4286C56.6957 58.4307 56.633 58.4564 56.587 58.5002C56.5411 58.544 56.5154 58.6026 56.5154 58.6635C56.5154 58.7244 56.5411 58.783 56.587 58.8268C56.633 58.8706 56.6957 58.8963 56.7618 58.8984Z" fill="#24228D"/>
<path d="M58.078 59.0957C58.1441 59.0936 58.2067 59.0679 58.2527 59.0241C58.2987 58.9803 58.3244 58.9217 58.3244 58.8608C58.3244 58.7999 58.2987 58.7413 58.2527 58.6975C58.2067 58.6537 58.1441 58.628 58.078 58.6259C58.0118 58.628 57.9492 58.6537 57.9032 58.6975C57.8572 58.7413 57.8315 58.7999 57.8315 58.8608C57.8315 58.9217 57.8572 58.9803 57.9032 59.0241C57.9492 59.0679 58.0118 59.0936 58.078 59.0957Z" fill="#24228D"/>
<path d="M59.4249 58.5601C59.491 58.558 59.5537 58.5324 59.5996 58.4885C59.6456 58.4447 59.6713 58.3862 59.6713 58.3252C59.6713 58.2643 59.6456 58.2057 59.5996 58.1619C59.5537 58.1181 59.491 58.0924 59.4249 58.0903C59.3588 58.0924 59.2961 58.1181 59.2501 58.1619C59.2042 58.2057 59.1785 58.2643 59.1785 58.3252C59.1785 58.3862 59.2042 58.4447 59.2501 58.4885C59.2961 58.5324 59.3588 58.558 59.4249 58.5601Z" fill="#24228D"/>
<path d="M60.588 58.8138C60.6541 58.8117 60.7168 58.786 60.7627 58.7422C60.8087 58.6984 60.8344 58.6398 60.8344 58.5789C60.8344 58.518 60.8087 58.4594 60.7627 58.4156C60.7168 58.3718 60.6541 58.3461 60.588 58.344C60.5218 58.3461 60.4592 58.3718 60.4132 58.4156C60.3672 58.4594 60.3416 58.518 60.3416 58.5789C60.3416 58.6398 60.3672 58.6984 60.4132 58.7422C60.4592 58.786 60.5218 58.8117 60.588 58.8138Z" fill="#24228D"/>
<path d="M61.6285 59.3494C61.6946 59.3473 61.7573 59.3216 61.8033 59.2778C61.8492 59.234 61.8749 59.1754 61.8749 59.1145C61.8749 59.0535 61.8492 58.995 61.8033 58.9512C61.7573 58.9073 61.6946 58.8817 61.6285 58.8796C61.5624 58.8817 61.4997 58.9073 61.4537 58.9512C61.4078 58.995 61.3821 59.0535 61.3821 59.1145C61.3821 59.1754 61.4078 59.234 61.4537 59.2778C61.4997 59.3216 61.5624 59.3473 61.6285 59.3494Z" fill="#24228D"/>
<path d="M62.6082 60.336C62.6743 60.3339 62.737 60.3082 62.783 60.2644C62.8289 60.2206 62.8546 60.162 62.8546 60.1011C62.8546 60.0402 62.8289 59.9816 62.783 59.9378C62.737 59.894 62.6743 59.8683 62.6082 59.8662C62.5421 59.8683 62.4795 59.894 62.4335 59.9378C62.3875 59.9816 62.3618 60.0402 62.3618 60.1011C62.3618 60.162 62.3875 60.2206 62.4335 60.2644C62.4795 60.3082 62.5421 60.3339 62.6082 60.336Z" fill="#24228D"/>
<path d="M63.8631 60.1669C63.9292 60.1648 63.9919 60.1391 64.0379 60.0953C64.0838 60.0515 64.1095 59.9929 64.1095 59.932C64.1095 59.8711 64.0838 59.8125 64.0379 59.7687C63.9919 59.7249 63.9292 59.6992 63.8631 59.6971C63.797 59.6992 63.7343 59.7249 63.6884 59.7687C63.6424 59.8125 63.6167 59.8711 63.6167 59.932C63.6167 59.9929 63.6424 60.0515 63.6884 60.0953C63.7343 60.1391 63.797 60.1648 63.8631 60.1669Z" fill="#24228D"/>
<path d="M65.118 59.8568C65.1841 59.8547 65.2468 59.829 65.2928 59.7852C65.3387 59.7414 65.3644 59.6828 65.3644 59.6219C65.3644 59.5609 65.3387 59.5024 65.2928 59.4586C65.2468 59.4147 65.1841 59.3891 65.118 59.387C65.0519 59.3891 64.9892 59.4147 64.9433 59.4586C64.8973 59.5024 64.8716 59.5609 64.8716 59.6219C64.8716 59.6828 64.8973 59.7414 64.9433 59.7852C64.9892 59.829 65.0519 59.8547 65.118 59.8568Z" fill="#24228D"/>
<path d="M66.1283 59.434C66.1944 59.4319 66.257 59.4062 66.303 59.3624C66.349 59.3186 66.3747 59.26 66.3747 59.1991C66.3747 59.1381 66.349 59.0796 66.303 59.0358C66.257 58.9919 66.1944 58.9663 66.1283 58.9642C66.0621 58.9663 65.9995 58.9919 65.9535 59.0358C65.9075 59.0796 65.8818 59.1381 65.8818 59.1991C65.8818 59.26 65.9075 59.3186 65.9535 59.3624C65.9995 59.4062 66.0621 59.4319 66.1283 59.434Z" fill="#24228D"/>
<path d="M67.23 58.7293C67.2962 58.7272 67.3588 58.7015 67.4048 58.6577C67.4507 58.6138 67.4764 58.5553 67.4764 58.4944C67.4764 58.4334 67.4507 58.3749 67.4048 58.3311C67.3588 58.2872 67.2962 58.2616 67.23 58.2595C67.1639 58.2616 67.1013 58.2872 67.0553 58.3311C67.0093 58.3749 66.9836 58.4334 66.9836 58.4944C66.9836 58.5553 67.0093 58.6138 67.0553 58.6577C67.1013 58.7015 67.1639 58.7272 67.23 58.7293Z" fill="#24228D"/>
<path d="M68.179 57.8836C68.2452 57.8815 68.3078 57.8558 68.3538 57.812C68.3998 57.7682 68.4255 57.7096 68.4255 57.6487C68.4255 57.5877 68.3998 57.5292 68.3538 57.4854C68.3078 57.4415 68.2452 57.4159 68.179 57.4138C68.1129 57.4159 68.0503 57.4415 68.0043 57.4854C67.9583 57.5292 67.9326 57.5877 67.9326 57.6487C67.9326 57.7096 67.9583 57.7682 68.0043 57.812C68.0503 57.8558 68.1129 57.8815 68.179 57.8836Z" fill="#24228D"/>
<path d="M68.9442 57.0379C69.0103 57.0358 69.073 57.0102 69.1189 56.9663C69.1649 56.9225 69.1906 56.864 69.1906 56.803C69.1906 56.7421 69.1649 56.6835 69.1189 56.6397C69.073 56.5959 69.0103 56.5702 68.9442 56.5681C68.878 56.5702 68.8154 56.5959 68.7694 56.6397C68.7234 56.6835 68.6978 56.7421 68.6978 56.803C68.6978 56.864 68.7234 56.9225 68.7694 56.9663C68.8154 57.0102 68.878 57.0358 68.9442 57.0379Z" fill="#24228D"/>
<path d="M87.1021 31.6935C87.0034 32.1273 86.8812 32.5563 86.7359 32.9788C86.5935 33.4049 86.415 33.82 86.2022 34.2204C85.9904 34.6273 85.7252 35.0087 85.4126 35.3562C85.0942 35.7156 84.689 36.0016 84.2294 36.1914C83.755 36.3815 83.227 36.4266 82.7228 36.32C82.2211 36.21 81.7661 35.9655 81.4152 35.6174L81.2836 35.4886L81.1708 35.3553C81.0964 35.2659 81.0183 35.1788 80.9503 35.0857L80.7405 34.8099L80.5444 34.5266C80.2902 34.1463 80.0594 33.7531 79.8531 33.3489C79.4397 32.5449 79.0955 31.7123 78.8239 30.8587C78.5498 30.0087 78.3348 29.1434 78.1803 28.2682C78.0284 27.3926 77.9399 26.5088 77.9153 25.6225C77.9 25.1774 77.9145 24.7319 77.9587 24.2885C77.9861 24.0664 78.0143 23.8438 78.0655 23.6229C78.1103 23.3938 78.1851 23.1706 78.2884 22.9581L78.2779 22.9792C78.3367 22.8273 78.4093 22.6803 78.4951 22.5396C78.5797 22.3991 78.6775 22.2656 78.7874 22.1407C78.8987 22.0137 79.0247 21.8981 79.163 21.7961C79.3047 21.6928 79.4603 21.6066 79.6258 21.5398L79.5848 21.5623C79.7237 21.4492 79.8523 21.3259 79.9693 21.1934C80.0843 21.0655 80.1809 20.9245 80.2568 20.7739C80.291 20.7045 80.3153 20.6314 80.3289 20.5562C80.3365 20.4616 80.3495 20.3674 80.3679 20.274L80.3984 20.1874C80.4136 20.1553 80.4318 20.1244 80.4529 20.0953C80.4806 20.058 80.5163 20.0264 80.5578 20.0025C80.5992 19.9785 80.6457 19.9626 80.6941 19.9558C80.7856 19.9457 80.878 19.9658 80.9551 20.0124C80.9915 20.0335 81.0242 20.0597 81.052 20.09C81.0968 20.1361 81.1227 20.1952 81.1253 20.2571L80.7606 20.2477C80.7656 20.1808 80.7798 20.1147 80.803 20.0511C80.8279 19.978 80.8699 19.9109 80.926 19.8543C80.9972 19.7856 81.0942 19.7444 81.1971 19.7391C81.2823 19.7361 81.3672 19.7508 81.4453 19.7823L81.1872 19.9092C81.1975 19.86 81.2124 19.8117 81.2318 19.7649C81.2541 19.7082 81.2871 19.6556 81.3294 19.6095C81.3628 19.5737 81.4052 19.5459 81.4529 19.5286C81.5108 19.5077 81.5747 19.5051 81.6344 19.5211C81.7101 19.5434 81.7774 19.5848 81.8287 19.6407L81.5795 19.6115C81.6425 19.5729 81.7126 19.545 81.7864 19.5291C81.8354 19.519 81.8861 19.5177 81.9357 19.5252C81.9995 19.5349 82.0585 19.5623 82.1049 19.6038C82.171 19.6685 82.2108 19.7522 82.2176 19.8408C82.2209 19.8726 82.2223 19.9045 82.222 19.9364L82.2187 20.0107C82.2079 20.2055 82.1859 20.3997 82.1525 20.5923C82.1018 20.9986 81.9471 21.3881 81.7013 21.7287C81.6231 21.8237 81.5616 21.8795 81.4922 21.9541L81.2892 22.1655L80.8833 22.5883L80.0664 23.4298L80.1133 23.2754C80.3867 24.7859 80.8512 26.2618 81.4975 27.6728C81.8217 28.3772 82.1944 29.0671 82.5794 29.7507L83.1617 30.7748L83.7611 31.8019C83.7631 31.8052 83.7636 31.8091 83.7625 31.8128C83.7614 31.8165 83.7589 31.8196 83.7553 31.8216C83.7518 31.8235 83.7476 31.8242 83.7436 31.8234C83.7396 31.8225 83.736 31.8203 83.7337 31.8172L83.7226 31.8019C83.5003 31.4959 83.2753 31.1548 83.0588 30.8289C82.8416 30.4987 82.6237 30.1685 82.4159 29.8329C81.9992 29.1623 81.5919 28.4855 81.2319 27.7816C80.879 27.0748 80.5759 26.3477 80.3247 25.605C80.1989 25.2337 80.0846 24.8592 79.9819 24.4816C79.8833 24.1032 79.7954 23.7228 79.7182 23.3401C79.7127 23.3133 79.7138 23.2856 79.7216 23.2593C79.7294 23.2329 79.7435 23.2085 79.763 23.1879L79.7651 23.1857L80.5752 22.3357L80.9827 21.9127L81.1865 21.7012C81.2504 21.6331 81.3326 21.5541 81.3764 21.4978C81.5791 21.2054 81.7095 20.8755 81.7584 20.5315C81.7922 20.3526 81.8155 20.1721 81.8284 19.9909L81.8325 19.9241C81.834 19.9057 81.8307 19.894 81.8312 19.8786C81.8295 19.8538 81.8169 19.8369 81.8344 19.8579C81.8441 19.8663 81.856 19.872 81.869 19.8747C81.8782 19.8747 81.873 19.8748 81.866 19.8753C81.8402 19.8815 81.8154 19.891 81.7925 19.9036L81.7866 19.907C81.7484 19.9292 81.7029 19.9381 81.6583 19.9321C81.6137 19.9261 81.5728 19.9056 81.5431 19.8744C81.5295 19.86 81.5065 19.8471 81.5323 19.8584C81.5513 19.8617 81.5709 19.8604 81.5892 19.8545C81.5972 19.8517 81.6045 19.8476 81.6109 19.8424C81.599 19.8571 81.5895 19.8734 81.5827 19.8907C81.5714 19.9172 81.5623 19.9445 81.5556 19.9723C81.5497 19.9969 81.5382 20.02 81.5219 20.0401C81.5056 20.0602 81.4848 20.077 81.4609 20.0892C81.437 20.1013 81.4106 20.1087 81.3834 20.1108C81.3562 20.1129 81.3288 20.1096 81.3031 20.1012L81.2974 20.0993C81.2729 20.0888 81.2464 20.0827 81.2193 20.0813C81.2048 20.0825 81.2056 20.0806 81.1924 20.0905C81.1734 20.1111 81.1592 20.135 81.1506 20.1608C81.1378 20.195 81.1292 20.2305 81.125 20.2665L80.7604 20.2571C80.7622 20.3063 80.7772 20.3051 80.7722 20.3042C80.7683 20.3001 80.7639 20.2965 80.7589 20.2936C80.7458 20.2851 80.7349 20.2854 80.7419 20.2851C80.7495 20.2855 80.7553 20.2754 80.7445 20.2876C80.7401 20.2931 80.7348 20.3044 80.7287 20.3136L80.7133 20.3553C80.6946 20.4235 80.6958 20.4876 80.6767 20.6084C80.6568 20.7109 80.6224 20.8106 80.5745 20.9049C80.4824 21.0802 80.3654 21.2434 80.2264 21.3901C80.0925 21.5344 79.9457 21.668 79.7875 21.7896C79.7768 21.7979 79.7649 21.8047 79.7521 21.8099L79.7464 21.8122C79.6057 21.8656 79.4729 21.9352 79.3511 22.0194C79.2273 22.1062 79.1141 22.2051 79.0134 22.3144C78.9113 22.4257 78.8186 22.5441 78.736 22.6684C78.6536 22.7923 78.5825 22.9222 78.5233 23.0568C78.5203 23.0639 78.5165 23.0714 78.5128 23.078C78.4151 23.2669 78.3409 23.4654 78.2918 23.6697C78.2369 23.8811 78.1938 24.0949 78.1627 24.3103C78.1035 24.7452 78.0735 25.183 78.0728 25.6213C78.075 26.5018 78.1495 27.381 78.2956 28.2511C78.451 29.12 78.6857 29.9752 78.9972 30.8077C79.3031 31.6393 79.6786 32.4479 80.1202 33.2261C80.3394 33.6145 80.5762 33.9927 80.8308 34.3606L81.0246 34.634L81.2288 34.8998C81.2951 34.9898 81.3704 35.0727 81.4423 35.1583L81.551 35.2859L81.6663 35.3978C81.9683 35.7051 82.3627 35.9227 82.7994 36.023C83.2368 36.1195 83.6959 36.0874 84.1125 35.9313C84.5343 35.7635 84.9108 35.5122 85.2153 35.1953C85.5287 34.8724 85.7981 34.5153 86.0173 34.1321C86.2405 33.7454 86.4377 33.3464 86.6078 32.9374C86.779 32.527 86.9257 32.1074 87.0647 31.6848C87.0654 31.6826 87.0666 31.6805 87.0682 31.6787C87.0698 31.6769 87.0718 31.6753 87.074 31.6742C87.0762 31.6731 87.0786 31.6724 87.0812 31.6722C87.0837 31.6719 87.0862 31.6721 87.0886 31.6728C87.0933 31.6741 87.0972 31.6769 87.0997 31.6808C87.1022 31.6846 87.103 31.6891 87.1021 31.6935Z" fill="#24228D"/>
<path d="M53.4387 57.0778C53.2199 57.8926 52.8133 58.6546 52.2465 59.3118C51.9547 59.6453 51.5999 59.9275 51.1991 60.1448C50.9959 60.2582 50.8056 60.3385 50.6113 60.4453L50.0335 60.7539C49.2667 61.1736 48.4941 61.5912 47.7299 62.0216C46.9622 62.4471 46.2124 62.8999 45.4792 63.3734L45.5015 63.3421C45.4644 63.5735 45.4996 63.8099 45.6029 64.0236C45.7097 64.2311 45.8921 64.3976 46.1183 64.4941C46.1735 64.5204 46.2311 64.5424 46.2903 64.5597L46.4721 64.6046C46.5967 64.6249 46.7225 64.6389 46.8488 64.6465C46.9772 64.6436 47.1044 64.6496 47.2325 64.6399L47.6166 64.6023L47.5745 64.6141C48.3373 64.2437 49.1066 63.8859 49.8823 63.5406C50.6582 63.1937 51.4357 62.8514 52.2433 62.556C52.4445 62.4815 52.6509 62.4134 52.8603 62.3484L53.0238 62.3053C53.0811 62.2879 53.14 62.2755 53.1999 62.2683L53.2984 62.2562L53.3472 62.251L53.3823 62.2496C53.43 62.2499 53.4777 62.2472 53.525 62.2414C53.9303 62.1874 54.3191 62.0573 54.6675 61.8591C55.0246 61.6626 55.3426 61.4114 55.6079 61.1163C55.8707 60.8138 56.0729 60.4706 56.2051 60.1028L56.2072 60.0973L56.2088 60.0936C56.2866 59.9564 56.3615 59.8162 56.4319 59.6751C56.5057 59.5362 56.5657 59.3915 56.6113 59.2428L56.6116 59.2415C56.6126 59.2376 56.6152 59.2342 56.6188 59.232C56.6224 59.2298 56.6268 59.2289 56.6311 59.2296C56.6354 59.2303 56.6392 59.2325 56.6418 59.2357C56.6444 59.2389 56.6455 59.2429 56.645 59.2469C56.6179 59.4034 56.573 59.5567 56.5109 59.7045C56.4534 59.8528 56.3919 59.9988 56.3261 60.1446L56.3298 60.1356C56.1163 60.939 55.5745 61.6357 54.8172 62.0805C54.6298 62.1939 54.4313 62.2909 54.2241 62.3701C54.0142 62.4536 53.7939 62.5127 53.5681 62.5461C53.5091 62.5553 53.4494 62.5608 53.3896 62.5626L53.344 62.5648L53.3131 62.5704L53.252 62.5805C53.2053 62.5869 53.1594 62.5976 53.115 62.6125L52.969 62.6535C52.772 62.7185 52.5743 62.7872 52.3777 62.8639C51.9842 63.0136 51.5904 63.1698 51.1997 63.3324C50.8079 63.4931 50.4156 63.6538 50.0257 63.8199L47.6907 64.827L47.6806 64.8314C47.6705 64.8357 47.6596 64.8382 47.6486 64.8388L47.242 64.859C47.1062 64.862 46.9687 64.8488 46.8329 64.8441C46.6962 64.8287 46.5606 64.8062 46.4267 64.7765L46.2285 64.7166C46.163 64.6939 46.0996 64.6663 46.039 64.6339C45.7882 64.5119 45.5914 64.3132 45.4825 64.072C45.3785 63.8345 45.3483 63.5751 45.3954 63.3228C45.3964 63.3166 45.3988 63.3107 45.4024 63.3055C45.406 63.3002 45.4108 63.2957 45.4164 63.2922L45.4177 63.2914C46.162 62.8304 46.9001 62.3612 47.632 61.8839C48.3688 61.4123 49.104 60.9365 49.8784 60.5132C50.2575 60.296 50.6728 60.1045 51.0575 59.9115C51.4357 59.7169 51.7751 59.4644 52.0611 59.1648C52.3539 58.8613 52.6114 58.5304 52.8292 58.1775C53.0543 57.8233 53.2472 57.4526 53.406 57.0692L53.4064 57.0682C53.4079 57.0645 53.411 57.0614 53.4149 57.0597C53.4188 57.058 53.4233 57.0577 53.4274 57.0589C53.4316 57.0601 53.435 57.0628 53.4371 57.0663C53.4392 57.0698 53.4398 57.0739 53.4387 57.0778L53.4387 57.0778Z" fill="#24228D"/>
<path d="M45.4486 63.3324C45.4486 63.3324 44.1487 65.2017 46.8923 65.9941C46.8923 65.9941 48.5074 66.3883 51.1063 63.9895C51.1063 63.9895 52.2933 62.9458 52.6125 62.9841L52.2247 63.9531L53.6198 64.3957L55.3125 63.6764L56.1564 60.4218C55.9024 60.941 55.5126 61.3941 55.022 61.7407C54.5313 62.0872 53.9551 62.3165 53.3448 62.4079C51.1924 62.7711 49.5135 63.9782 47.6328 64.7205C47.6328 64.7205 45.2043 65.1132 45.4486 63.3324Z" fill="#24228D"/>
<path d="M47.1765 62.2585C47.1765 62.2585 48.8136 62.3684 49.0882 64.0615L50.6499 63.3802C50.6499 63.3802 50.362 61.3047 48.366 61.5431C48.366 61.5431 47.6995 61.4379 47.1765 62.2585Z" fill="#24228D"/>
<path d="M64.1064 59.0352C64.3502 59.8439 64.403 60.6913 64.2612 61.5204C64.1846 61.9427 64.0261 62.3488 63.7933 62.7193C63.6711 62.9069 63.5537 63.0662 63.4408 63.2468L63.1035 63.7778C62.6596 64.4904 62.2097 65.2038 61.7739 65.9246C61.3336 66.6433 60.9187 67.3754 60.5384 68.1222L60.5412 68.0827C60.6318 68.3011 60.787 68.4917 60.9893 68.633C61.1926 68.767 61.4411 68.8301 61.6903 68.8109C61.9418 68.7895 62.186 68.7212 62.4079 68.6101C62.635 68.4992 62.8509 68.3697 63.0528 68.2233L63.0223 68.2526C63.6457 67.3598 64.2934 66.4834 64.9574 65.6148C65.2919 65.182 65.6329 64.7534 65.9974 64.337C66.1805 64.1233 66.3771 63.9198 66.5862 63.7275C66.648 63.6718 66.7164 63.6227 66.79 63.5809C66.8453 63.5528 66.8984 63.5213 66.949 63.4866C67.0551 63.4114 67.1538 63.3276 67.2439 63.2363C67.6125 62.8539 67.8802 62.3981 68.0258 61.9047C68.1786 61.4044 68.2111 60.8796 68.1211 60.3666C67.9434 59.3168 67.8027 58.2664 67.6628 57.2142C67.6623 57.2102 67.6635 57.206 67.6662 57.2028C67.6689 57.1995 67.673 57.1974 67.6774 57.1968C67.6818 57.1962 67.6863 57.1973 67.6899 57.1998C67.6935 57.2023 67.6959 57.2059 67.6965 57.21C67.875 58.2562 68.0411 59.3061 68.2475 60.3456C68.3828 60.8758 68.3876 61.4271 68.2616 61.9592C68.1316 62.4991 67.8638 63.0027 67.4804 63.4283C67.3814 63.5368 67.2721 63.6369 67.1538 63.7275C67.0911 63.7744 67.0247 63.817 66.9552 63.8549C66.9081 63.8851 66.8641 63.9192 66.8238 63.9568C66.6299 64.1426 66.4478 64.3386 66.2785 64.5437C65.9262 64.956 65.5859 65.3816 65.2451 65.8063C64.5633 66.6563 63.9021 67.5228 63.2377 68.3858L63.234 68.3906C63.2266 68.4001 63.2176 68.4084 63.2072 68.4152C62.9854 68.5612 62.7486 68.6867 62.5001 68.79C62.2478 68.8981 61.9746 68.959 61.6965 68.9692C61.4119 68.9774 61.1332 68.8926 60.9099 68.7299C60.6927 68.5694 60.5276 68.3569 60.4327 68.1157C60.4303 68.1093 60.4293 68.1025 60.4298 68.0957C60.4303 68.0889 60.4323 68.0823 60.4356 68.0762C60.8431 67.3401 61.2328 66.597 61.6155 65.8492C62.0055 65.1049 62.3917 64.3577 62.84 63.6384C63.0549 63.278 63.3129 62.9224 63.5525 62.5845C63.7756 62.2422 63.9345 61.8676 64.0225 61.4766C64.1181 61.0801 64.1654 60.675 64.1637 60.2688C64.1704 59.8584 64.1402 59.4483 64.0734 59.0425L64.0732 59.0416C64.0726 59.0376 64.0736 59.0336 64.0761 59.0303C64.0785 59.0271 64.0823 59.0248 64.0865 59.024C64.0908 59.0231 64.0952 59.0238 64.0989 59.0259C64.1026 59.028 64.1053 59.0314 64.1064 59.0352L64.1064 59.0352Z" fill="#24228D"/>
<path d="M60.4871 68.0992C60.4871 68.0992 60.3529 70.3155 63.1651 69.7635C63.1651 69.7635 64.782 69.3757 65.7648 66.1102C65.7648 66.1102 66.2413 64.6639 66.5397 64.5528L66.7193 65.5722L68.1704 65.3261L69.2605 63.9333L68.2582 60.7171C68.314 61.2842 68.2165 61.8552 67.9742 62.3792C67.732 62.9031 67.3525 63.3636 66.8699 63.7195C65.1894 65.0101 64.3717 66.8214 63.1301 68.3193C63.1301 68.3193 61.225 69.7606 60.4871 68.0992Z" fill="#24228D"/>
<path d="M61.4187 66.3816C61.4187 66.3816 62.903 65.7362 64.0459 67.0862L65.0422 65.786C65.0422 65.786 63.6836 64.109 62.0727 65.2202C62.0727 65.2202 61.4361 65.4303 61.4187 66.3816Z" fill="#24228D"/>
<path d="M56.742 39.4767C56.7465 39.4813 56.7507 39.4862 56.7544 39.4913L56.7554 39.4926L56.757 39.4942L56.9591 39.7055C56.9643 39.711 56.9677 39.7177 56.969 39.7248C56.9703 39.732 56.9694 39.7393 56.9663 39.746C56.9633 39.7527 56.9583 39.7584 56.9519 39.7626C56.9455 39.7668 56.9379 39.7693 56.9301 39.7697L56.9265 39.7699C55.9674 39.8222 55.0084 39.854 54.0494 39.8708L53.3301 39.8823C53.2004 39.8876 53.0705 39.8815 52.9421 39.8639C52.7398 39.8323 52.5476 39.7601 52.379 39.6524C52.2104 39.5448 52.0696 39.4042 51.9666 39.2408C51.8317 39.0247 51.767 38.7776 51.78 38.5287C51.7941 37.6453 51.8301 36.7616 51.8391 35.8782C51.8434 34.9949 51.8231 34.1119 51.7781 33.2292C51.7681 33.1137 51.7704 32.9976 51.7848 32.8826C51.8013 32.7634 51.8368 32.647 51.8902 32.5373C51.9967 32.3132 52.1713 32.1223 52.393 31.9874C52.6177 31.8505 52.8804 31.7759 53.1498 31.7722L53.869 31.7598L54.5883 31.7513C55.0022 31.7469 55.4018 31.8905 55.7029 32.152C56.0041 32.4135 56.1833 32.7724 56.2028 33.1532C56.3151 34.9165 56.3848 36.6821 56.4121 38.4499L56.4122 38.4559L56.412 38.4598C56.4064 38.5454 56.4116 38.6314 56.4273 38.7159C56.443 38.8043 56.4656 38.8916 56.495 38.9769C56.5573 39.1499 56.6394 39.3163 56.74 39.4733C56.7413 39.4753 56.7422 39.4775 56.7426 39.4798C56.743 39.4821 56.7429 39.4845 56.7423 39.4867C56.7417 39.489 56.7407 39.4911 56.7392 39.493C56.7377 39.4949 56.7358 39.4965 56.7336 39.4977C56.7295 39.4999 56.7247 39.5007 56.72 39.4999C56.7153 39.4991 56.7111 39.4967 56.7082 39.4933C56.6463 39.4192 56.5885 39.3423 56.5353 39.2627C56.4826 39.1819 56.4355 39.0981 56.3944 39.0118C56.3533 38.9243 56.3191 38.8342 56.2922 38.7422C56.2633 38.6466 56.247 38.5482 56.2437 38.449L56.2437 38.4588C56.0499 36.6999 55.8995 34.9385 55.7927 33.1748C55.7832 32.9843 55.7237 32.7987 55.6192 32.634C55.5131 32.4698 55.363 32.3335 55.1833 32.2381C55.0021 32.142 54.7973 32.0901 54.5883 32.0874L53.869 32.0789L53.1497 32.0665C52.9347 32.0595 52.7219 32.1086 52.5358 32.2081C52.3497 32.3076 52.198 32.4535 52.0979 32.629C52.0461 32.718 52.0093 32.8138 51.9888 32.9131C51.9692 33.0168 51.9608 33.1219 51.9635 33.2271C51.9411 34.1106 51.9441 34.9938 51.9724 35.8767C52.0052 36.7596 52.0649 37.6422 52.1027 38.525C52.1001 38.7202 52.1553 38.9123 52.2625 39.0807C52.3696 39.2449 52.5241 39.3786 52.7088 39.4667C52.8007 39.5108 52.8993 39.5421 53.0012 39.5596C53.1099 39.5759 53.22 39.5825 53.33 39.5792L54.0493 39.5906C55.0083 39.6074 55.9674 39.6393 56.9264 39.6915L56.8938 39.7558L56.7218 39.5162L56.7243 39.519C56.7177 39.5095 56.7116 39.4996 56.7062 39.4899C56.7041 39.4862 56.7036 39.482 56.7047 39.478C56.7058 39.474 56.7084 39.4705 56.7121 39.4682C56.7158 39.4658 56.7203 39.4648 56.7247 39.4653C56.7291 39.4658 56.7332 39.4677 56.7362 39.4708L56.742 39.4767Z" fill="black" fill-opacity="0.5"/>
<path d="M61.4122 43.7407C61.4897 43.8545 61.5491 43.978 61.5886 44.1074C61.6274 44.2303 61.6544 44.3561 61.669 44.4835C61.6842 44.6107 61.6868 44.739 61.6768 44.8667C61.6679 45.0009 61.6379 45.1331 61.5877 45.2594C61.5098 45.1457 61.4502 45.0222 61.4109 44.8927C61.372 44.7698 61.3452 44.6439 61.3309 44.5166C61.3161 44.3893 61.3137 44.261 61.3236 44.1333C61.3326 43.9992 61.3624 43.867 61.4122 43.7407Z" fill="white"/>
</svg>
