<svg width="45" height="45" viewBox="0 0 45 45" fill="none" xmlns="http://www.w3.org/2000/svg">
<path d="M22.5 0C18.0499 0 13.6998 1.3196 9.99968 3.79193C6.29957 6.26426 3.41569 9.77828 1.71272 13.8896C0.00974789 18.001 -0.435826 22.525 0.432342 26.8895C1.30051 31.2541 3.44343 35.2632 6.59011 38.4099C9.73679 41.5566 13.7459 43.6995 18.1105 44.5677C22.475 45.4358 26.999 44.9903 31.1104 43.2873C35.2217 41.5843 38.7357 38.7004 41.2081 35.0003C43.6804 31.3002 45 26.9501 45 22.5C44.9932 16.5347 42.6205 10.8157 38.4024 6.59756C34.1843 2.37946 28.4653 0.00675808 22.5 0ZM22.5 42C18.6433 42 14.8731 40.8564 11.6664 38.7137C8.4596 36.571 5.96022 33.5255 4.4843 29.9624C3.00839 26.3992 2.62222 22.4784 3.37462 18.6958C4.12703 14.9131 5.98422 11.4385 8.71135 8.71142C11.4385 5.98429 14.913 4.12709 18.6957 3.37467C22.4783 2.62225 26.3991 3.00842 29.9623 4.48432C33.5254 5.96023 36.5709 8.4596 38.7136 11.6664C40.8563 14.8731 42 18.6433 42 22.5C41.9942 27.6699 39.9378 32.6264 36.2822 36.2822C32.6265 39.9379 27.6699 41.9942 22.5 42Z" fill="#163356"/>
<path d="M22.5 0C18.0499 0 13.6998 1.3196 9.99968 3.79193C6.29957 6.26426 3.41569 9.77828 1.71272 13.8896C0.00974789 18.001 -0.435826 22.525 0.432342 26.8895C1.30051 31.2541 3.44343 35.2632 6.59011 38.4099C9.73679 41.5566 13.7459 43.6995 18.1105 44.5677C22.475 45.4358 26.999 44.9903 31.1104 43.2873C35.2217 41.5843 38.7357 38.7004 41.2081 35.0003C43.6804 31.3002 45 26.9501 45 22.5C44.9932 16.5347 42.6205 10.8157 38.4024 6.59756C34.1843 2.37946 28.4653 0.00675808 22.5 0ZM22.5 42C18.6433 42 14.8731 40.8564 11.6664 38.7137C8.4596 36.571 5.96022 33.5255 4.4843 29.9624C3.00839 26.3992 2.62222 22.4784 3.37462 18.6958C4.12703 14.9131 5.98422 11.4385 8.71135 8.71142C11.4385 5.98429 14.913 4.12709 18.6957 3.37467C22.4783 2.62225 26.3991 3.00842 29.9623 4.48432C33.5254 5.96023 36.5709 8.4596 38.7136 11.6664C40.8563 14.8731 42 18.6433 42 22.5C41.9942 27.6699 39.9378 32.6264 36.2822 36.2822C32.6265 39.9379 27.6699 41.9942 22.5 42Z" fill="#163356"/>
<path d="M16.8107 20.0437C18.5962 20.0437 20.0437 18.5962 20.0437 16.8107C20.0437 15.0251 18.5962 13.5776 16.8107 13.5776C15.0251 13.5776 13.5776 15.0251 13.5776 16.8107C13.5776 18.5962 15.0251 20.0437 16.8107 20.0437Z" fill="#163356"/>
<path d="M28.4486 31.6815C30.2341 31.6815 31.6816 30.234 31.6816 28.4485C31.6816 26.6629 30.2341 25.2155 28.4486 25.2155C26.663 25.2155 25.2156 26.6629 25.2156 28.4485C25.2156 30.234 26.663 31.6815 28.4486 31.6815Z" fill="#163356"/>
<path d="M18.6587 31.6808L31.3347 13.5776H26.5996L13.9236 31.6808H18.6587Z" fill="#163356"/>
</svg>
