<svg width="76" height="41" viewBox="0 0 76 41" fill="none" xmlns="http://www.w3.org/2000/svg">
<line y1="-1.5" x2="37.9995" y2="-1.5" transform="matrix(-5.69453e-06 -1 1 -1.01236e-05 75.9995 41)" stroke="#24228D" stroke-width="3"/>
<path d="M11.5333 29.5117C10.309 29.5117 9.30358 29.1808 8.5172 28.5192C7.73082 27.8461 7.30777 26.8878 7.24805 25.6443H10.3687C10.3985 26.0664 10.508 26.3745 10.6972 26.5684C10.8863 26.7623 11.1302 26.8593 11.4288 26.8593C11.6976 26.8593 11.9166 26.7851 12.0858 26.6368C12.2649 26.4771 12.3545 26.2604 12.3545 25.9866C12.3545 25.6329 12.2102 25.3591 11.9215 25.1652C11.6329 24.9713 11.165 24.7545 10.518 24.5149C9.83115 24.2526 9.27372 24.0016 8.84569 23.762C8.42762 23.511 8.05931 23.1517 7.74078 22.684C7.4322 22.2048 7.27791 21.5831 7.27791 20.8187C7.27791 20.043 7.44713 19.3813 7.78557 18.8337C8.12401 18.2747 8.59186 17.8527 9.18911 17.5674C9.78636 17.2822 10.4632 17.1396 11.2198 17.1396C12.4441 17.1396 13.4196 17.4705 14.1463 18.1321C14.8829 18.7824 15.2761 19.7008 15.3259 20.8872H12.1455C12.1355 20.5221 12.036 20.2483 11.8469 20.0658C11.6677 19.8833 11.4338 19.792 11.1451 19.792C10.9261 19.792 10.7469 19.8662 10.6076 20.0145C10.4682 20.1628 10.3985 20.3738 10.3985 20.6476C10.3985 20.8758 10.4732 21.0754 10.6225 21.2465C10.7818 21.4063 10.9759 21.5489 11.2048 21.6743C11.4338 21.7884 11.7722 21.9367 12.2202 22.1193C12.8871 22.3816 13.4346 22.644 13.8626 22.9064C14.3006 23.1574 14.6739 23.5167 14.9824 23.9845C15.301 24.4408 15.4602 25.0226 15.4602 25.7299C15.4602 26.4486 15.301 27.0932 14.9824 27.6636C14.6739 28.234 14.2209 28.6846 13.6237 29.0154C13.0364 29.3463 12.3396 29.5117 11.5333 29.5117Z" fill="#24228D"/>
<path d="M23.4801 27.424H19.7473L19.1799 29.3919H16.104L19.9414 17.3279H23.3158L27.1382 29.3919H24.0475L23.4801 27.424ZM22.7484 24.8572L21.6137 20.9556L20.4938 24.8572H22.7484Z" fill="#24228D"/>
<path d="M35.2292 17.3279V19.9974H31.0186V22.1193H34.1243V24.669H31.0186V29.3919H28.0921V17.3279H35.2292Z" fill="#24228D"/>
<path d="M39.3883 20.0145V21.9824H42.7478V24.5321H39.3883V26.7053H43.1957V29.3919H36.4618V17.3279H43.1957V20.0145H39.3883Z" fill="#24228D"/>
<path d="M49.525 25.7265C49.8595 25.7949 50.1432 25.9969 50.3761 26.3322C50.609 26.6676 50.7255 27.0475 50.7255 27.4719C50.7255 27.8347 50.6419 28.1632 50.4747 28.4576C50.3134 28.745 50.0775 28.9744 49.7669 29.1455C49.4563 29.3097 49.095 29.3919 48.6829 29.3919H46.1924V22.2562H48.5664C48.9905 22.2562 49.3548 22.3383 49.6594 22.5026C49.964 22.6668 50.194 22.8893 50.3492 23.1699C50.5045 23.4437 50.5822 23.7518 50.5822 24.094C50.5822 24.5047 50.4866 24.8469 50.2955 25.1207C50.1044 25.3945 49.8475 25.5964 49.525 25.7265ZM47.2137 25.2542H48.4769C48.8113 25.2542 49.0711 25.1686 49.2563 24.9975C49.4474 24.8195 49.5429 24.5663 49.5429 24.2377C49.5429 23.916 49.4474 23.6662 49.2563 23.4882C49.0711 23.3034 48.8113 23.211 48.4769 23.211H47.2137V25.2542ZM48.5933 28.437C48.9397 28.437 49.2115 28.3412 49.4086 28.1496C49.6057 27.9579 49.7042 27.6909 49.7042 27.3487C49.7042 26.9996 49.5997 26.7224 49.3907 26.5171C49.1816 26.3117 48.9039 26.209 48.5575 26.209H47.2137V28.437H48.5933Z" fill="#24228D"/>
<path d="M51.4949 26.5376C51.4949 25.9695 51.5964 25.4664 51.7995 25.0283C52.0085 24.5902 52.2892 24.2514 52.6416 24.0119C53 23.7654 53.3942 23.6422 53.8242 23.6422C54.2124 23.6422 54.5498 23.7312 54.8365 23.9092C55.1292 24.0803 55.3621 24.2959 55.5353 24.556V23.7346H56.5656V29.3919H55.5353V28.55C55.3621 28.8169 55.1262 29.0394 54.8276 29.2173C54.5289 29.3953 54.1885 29.4843 53.8063 29.4843C53.3822 29.4843 52.994 29.3611 52.6416 29.1147C52.2892 28.8614 52.0085 28.5123 51.7995 28.0674C51.5964 27.6157 51.4949 27.1057 51.4949 26.5376ZM55.5353 26.5581C55.5353 26.168 55.4636 25.8292 55.3203 25.5417C55.1829 25.2542 55.0008 25.0352 54.7738 24.8846C54.5469 24.734 54.302 24.6587 54.0392 24.6587C53.7764 24.6587 53.5315 24.734 53.3046 24.8846C53.0776 25.0283 52.8925 25.2439 52.7491 25.5314C52.6118 25.812 52.5431 26.1474 52.5431 26.5376C52.5431 26.9277 52.6118 27.27 52.7491 27.5643C52.8925 27.8586 53.0776 28.0845 53.3046 28.242C53.5375 28.3925 53.7824 28.4678 54.0392 28.4678C54.302 28.4678 54.5469 28.3925 54.7738 28.242C55.0008 28.0914 55.1829 27.8723 55.3203 27.5849C55.4636 27.2905 55.5353 26.9483 55.5353 26.5581Z" fill="#24228D"/>
<path d="M60.3975 23.6422C60.7857 23.6422 61.1321 23.7346 61.4367 23.9194C61.7473 24.1043 61.9892 24.3781 62.1624 24.7408C62.3356 25.1036 62.4222 25.5417 62.4222 26.055V29.3919H61.4099V26.2296C61.4099 25.7231 61.2994 25.3363 61.0784 25.0694C60.8574 24.7956 60.5558 24.6587 60.1736 24.6587C59.7913 24.6587 59.4867 24.7956 59.2598 25.0694C59.0388 25.3363 58.9283 25.7231 58.9283 26.2296V29.3919H57.907V23.7346H58.9283V24.3815C59.0955 24.1488 59.3075 23.9674 59.5644 23.8373C59.8272 23.7073 60.1049 23.6422 60.3975 23.6422Z" fill="#24228D"/>
<path d="M65.6779 26.5684L67.9535 29.3919H66.5738L64.7462 26.9586V29.3919H63.7249V21.7941H64.7462V26.209L66.538 23.7346H67.9535L65.6779 26.5684Z" fill="#24228D"/>
<line x1="11.0835" y1="1.5" x2="76.0003" y2="1.5" stroke="#24228D" stroke-width="3"/>
<line y1="7.83319" x2="64.9168" y2="7.83319" stroke="#A595C0" stroke-width="3"/>
</svg>
