<svg width="45" height="45" viewBox="0 0 45 45" fill="none" xmlns="http://www.w3.org/2000/svg">
<path d="M22.5 0C18.0499 0 13.6998 1.3196 9.99968 3.79193C6.29957 6.26426 3.41569 9.77828 1.71272 13.8896C0.00974789 18.001 -0.435826 22.525 0.432342 26.8895C1.30051 31.2541 3.44343 35.2632 6.59011 38.4099C9.73679 41.5566 13.7459 43.6995 18.1105 44.5677C22.475 45.4358 26.999 44.9903 31.1104 43.2873C35.2217 41.5843 38.7357 38.7004 41.2081 35.0003C43.6804 31.3002 45 26.9501 45 22.5C44.9932 16.5347 42.6205 10.8157 38.4024 6.59756C34.1843 2.37946 28.4653 0.00675808 22.5 0ZM22.5 42C18.6433 42 14.8731 40.8564 11.6664 38.7137C8.4596 36.571 5.96022 33.5255 4.4843 29.9624C3.00839 26.3992 2.62222 22.4784 3.37462 18.6958C4.12703 14.9131 5.98422 11.4385 8.71135 8.71142C11.4385 5.98429 14.913 4.12709 18.6957 3.37467C22.4783 2.62225 26.3991 3.00842 29.9623 4.48432C33.5254 5.96023 36.5709 8.4596 38.7136 11.6664C40.8563 14.8731 42 18.6433 42 22.5C41.9942 27.6699 39.9378 32.6264 36.2822 36.2822C32.6265 39.9379 27.6699 41.9942 22.5 42Z" fill="#24228D"/>
<path d="M22.5 0C18.0499 0 13.6998 1.3196 9.99968 3.79193C6.29957 6.26426 3.41569 9.77828 1.71272 13.8896C0.00974789 18.001 -0.435826 22.525 0.432342 26.8895C1.30051 31.2541 3.44343 35.2632 6.59011 38.4099C9.73679 41.5566 13.7459 43.6995 18.1105 44.5677C22.475 45.4358 26.999 44.9903 31.1104 43.2873C35.2217 41.5843 38.7357 38.7004 41.2081 35.0003C43.6804 31.3002 45 26.9501 45 22.5C44.9932 16.5347 42.6205 10.8157 38.4024 6.59756C34.1843 2.37946 28.4653 0.00675808 22.5 0ZM22.5 42C18.6433 42 14.8731 40.8564 11.6664 38.7137C8.4596 36.571 5.96022 33.5255 4.4843 29.9624C3.00839 26.3992 2.62222 22.4784 3.37462 18.6958C4.12703 14.9131 5.98422 11.4385 8.71135 8.71142C11.4385 5.98429 14.913 4.12709 18.6957 3.37467C22.4783 2.62225 26.3991 3.00842 29.9623 4.48432C33.5254 5.96023 36.5709 8.4596 38.7136 11.6664C40.8563 14.8731 42 18.6433 42 22.5C41.9942 27.6699 39.9378 32.6264 36.2822 36.2822C32.6265 39.9379 27.6699 41.9942 22.5 42Z" fill="#24228D"/>
<path d="M24.9491 26.9695C24.9491 26.4437 24.7965 26.031 24.4912 25.7315C24.1859 25.4319 23.6497 25.1491 22.8826 24.8828C22.1155 24.6166 21.407 24.347 20.7573 24.0741C20.1076 23.8012 19.5479 23.485 19.0783 23.1256C18.6086 22.7662 18.2485 22.3501 17.998 21.8776C17.7476 21.405 17.6223 20.8325 17.6223 20.1603C17.6223 19.0354 18.0685 18.1102 18.9609 17.3847C19.8532 16.6525 21.0431 16.2265 22.5303 16.1067V14H24.3973V16.1466C25.8297 16.3263 26.953 16.8289 27.7671 17.6542C28.589 18.4729 29 19.5146 29 20.7793H25.0313C25.0313 20.0871 24.8748 19.5546 24.5616 19.1818C24.2485 18.8091 23.8023 18.6227 23.2231 18.6227C22.7065 18.6227 22.3033 18.7625 22.0137 19.042C21.7319 19.3149 21.591 19.6943 21.591 20.1802C21.591 20.6728 21.7554 21.0655 22.0841 21.3584C22.4129 21.6446 22.9413 21.9208 23.6693 22.1871C24.3973 22.4467 25.0822 22.7196 25.7241 23.0058C26.3738 23.2853 26.9335 23.6048 27.4031 23.9643C27.8728 24.3237 28.2407 24.743 28.5068 25.2223C28.773 25.7015 28.9061 26.2773 28.9061 26.9496C28.9061 28.0878 28.4795 29.0163 27.6262 29.7352C26.7808 30.454 25.6262 30.8734 24.1624 30.9932V33H22.2955V30.9832C20.589 30.8301 19.2779 30.3342 18.362 29.4955C17.454 28.6502 17 27.5386 17 26.1608H20.9569C20.9569 26.9196 21.1526 27.4987 21.544 27.8981C21.9432 28.2908 22.5068 28.4871 23.2348 28.4871C23.7671 28.4871 24.1859 28.354 24.4912 28.0878C24.7965 27.8149 24.9491 27.4421 24.9491 26.9695Z" fill="#24228D"/>
</svg>
